G04 #@! TF.FileFunction,Copper,L1,Top,Signal*
%FSLAX46Y46*%
G04 Gerber Fmt 4.6, Leading zero omitted, Abs format (unit mm)*
G04 Created by KiCad (PCBNEW 4.0.5-e0-6337~49~ubuntu16.04.1) date Thu Feb 16 22:53:25 2017*
%MOMM*%
%LPD*%
G01*
G04 APERTURE LIST*
%ADD10C,0.100000*%
%ADD11C,4.064000*%
%ADD12R,1.250000X1.000000*%
%ADD13R,1.750000X1.750000*%
%ADD14C,1.750000*%
%ADD15R,1.700000X1.700000*%
%ADD16O,1.700000X1.700000*%
%ADD17R,1.300000X0.700000*%
%ADD18C,0.600000*%
%ADD19C,0.250000*%
%ADD20C,0.254000*%
G04 APERTURE END LIST*
D10*
D11*
X116908000Y-79256000D03*
X178908000Y-79256000D03*
X116908000Y-131256000D03*
X178908000Y-131256000D03*
D12*
X157988000Y-97298000D03*
X157988000Y-99298000D03*
X155702000Y-97298000D03*
X155702000Y-99298000D03*
X162560000Y-97298000D03*
X162560000Y-99298000D03*
X160274000Y-97298000D03*
X160274000Y-99298000D03*
X138430000Y-97298000D03*
X138430000Y-99298000D03*
X135890000Y-97298000D03*
X135890000Y-99298000D03*
X133350000Y-97298000D03*
X133350000Y-99298000D03*
X130810000Y-97298000D03*
X130810000Y-99298000D03*
X154432000Y-116348000D03*
X154432000Y-118348000D03*
X156972000Y-116348000D03*
X156972000Y-118348000D03*
X159512000Y-116348000D03*
X159512000Y-118348000D03*
X162052000Y-116348000D03*
X162052000Y-118348000D03*
D13*
X170688000Y-81026000D03*
D14*
X168188000Y-81026000D03*
X165688000Y-81026000D03*
X163188000Y-81026000D03*
X160688000Y-81026000D03*
X158188000Y-81026000D03*
X155688000Y-81026000D03*
X153188000Y-81026000D03*
D13*
X142494000Y-81026000D03*
D14*
X139994000Y-81026000D03*
X137494000Y-81026000D03*
X134994000Y-81026000D03*
X132494000Y-81026000D03*
X129994000Y-81026000D03*
X127494000Y-81026000D03*
X124994000Y-81026000D03*
D15*
X123952000Y-125476000D03*
D16*
X126492000Y-125476000D03*
X129032000Y-125476000D03*
X131572000Y-125476000D03*
X134112000Y-125476000D03*
X136652000Y-125476000D03*
X139192000Y-125476000D03*
X141732000Y-125476000D03*
X144272000Y-125476000D03*
X146812000Y-125476000D03*
X149352000Y-125476000D03*
X151892000Y-125476000D03*
X154432000Y-125476000D03*
X156972000Y-125476000D03*
X159512000Y-125476000D03*
X162052000Y-125476000D03*
X164592000Y-125476000D03*
X167132000Y-125476000D03*
X169672000Y-125476000D03*
X172212000Y-125476000D03*
D15*
X123952000Y-110236000D03*
D16*
X126492000Y-110236000D03*
X129032000Y-110236000D03*
X131572000Y-110236000D03*
X134112000Y-110236000D03*
X136652000Y-110236000D03*
X139192000Y-110236000D03*
X141732000Y-110236000D03*
X144272000Y-110236000D03*
X146812000Y-110236000D03*
X149352000Y-110236000D03*
X151892000Y-110236000D03*
X154432000Y-110236000D03*
X156972000Y-110236000D03*
X159512000Y-110236000D03*
X162052000Y-110236000D03*
X164592000Y-110236000D03*
X167132000Y-110236000D03*
X169672000Y-110236000D03*
X172212000Y-110236000D03*
D17*
X167386000Y-88204000D03*
X167386000Y-90104000D03*
X165100000Y-88204000D03*
X165100000Y-90104000D03*
X162814000Y-88204000D03*
X162814000Y-90104000D03*
X160528000Y-88204000D03*
X160528000Y-90104000D03*
X140462000Y-88204000D03*
X140462000Y-90104000D03*
X137922000Y-88204000D03*
X137922000Y-90104000D03*
X135382000Y-88204000D03*
X135382000Y-90104000D03*
X132842000Y-88204000D03*
X132842000Y-90104000D03*
X158242000Y-88204000D03*
X158242000Y-90104000D03*
X155956000Y-88204000D03*
X155956000Y-90104000D03*
X130302000Y-88204000D03*
X130302000Y-90104000D03*
X127762000Y-88204000D03*
X127762000Y-90104000D03*
D18*
X168148000Y-86868000D03*
X165862000Y-86868000D03*
X164084000Y-86614000D03*
X160020000Y-102108000D03*
X161798000Y-86614000D03*
X159258000Y-101346000D03*
X138430000Y-100838000D03*
X141478000Y-86868000D03*
X135890000Y-101600000D03*
X138938000Y-86868000D03*
X133350000Y-102362000D03*
X136398000Y-86868000D03*
X133604000Y-86868000D03*
X131064000Y-103124000D03*
X154432000Y-120904000D03*
X159258000Y-86868000D03*
X129286000Y-86614000D03*
X126492000Y-85852000D03*
X156972000Y-86614000D03*
X156972000Y-121666000D03*
D19*
X167386000Y-87376000D02*
X167894000Y-86868000D01*
X167894000Y-86868000D02*
X168148000Y-86868000D01*
X167386000Y-88204000D02*
X167386000Y-87376000D01*
X157988000Y-99298000D02*
X157988000Y-100584000D01*
X157988000Y-100584000D02*
X155194000Y-103378000D01*
X155194000Y-103378000D02*
X148082000Y-103378000D01*
X148082000Y-103378000D02*
X144272000Y-107188000D01*
X144272000Y-107188000D02*
X144272000Y-110236000D01*
X167386000Y-88204000D02*
X167386000Y-86360000D01*
X170688000Y-83058000D02*
X170688000Y-81026000D01*
X167386000Y-86360000D02*
X170688000Y-83058000D01*
X165100000Y-87630000D02*
X165862000Y-86868000D01*
X165100000Y-88204000D02*
X165100000Y-87630000D01*
X141732000Y-110236000D02*
X141732000Y-108204000D01*
X141732000Y-108204000D02*
X147066000Y-102870000D01*
X147066000Y-102870000D02*
X154686000Y-102870000D01*
X154686000Y-102870000D02*
X155702000Y-101854000D01*
X155702000Y-101854000D02*
X155702000Y-99298000D01*
X165100000Y-88204000D02*
X165100000Y-86614000D01*
X168188000Y-83526000D02*
X168188000Y-81026000D01*
X165100000Y-86614000D02*
X168188000Y-83526000D01*
X165688000Y-85010000D02*
X164084000Y-86614000D01*
X165688000Y-83566000D02*
X165688000Y-85010000D01*
X162560000Y-99298000D02*
X162560000Y-99568000D01*
X162560000Y-99568000D02*
X160020000Y-102108000D01*
X160020000Y-102108000D02*
X157734000Y-104394000D01*
X149352000Y-104648000D02*
X149352000Y-110236000D01*
X149606000Y-104394000D02*
X149352000Y-104648000D01*
X157734000Y-104394000D02*
X149606000Y-104394000D01*
X162814000Y-88204000D02*
X162814000Y-86614000D01*
X165688000Y-83740000D02*
X165688000Y-83566000D01*
X165688000Y-83566000D02*
X165688000Y-81026000D01*
X162814000Y-86614000D02*
X165688000Y-83740000D01*
X159258000Y-101346000D02*
X157988000Y-101346000D01*
X163188000Y-85224000D02*
X161798000Y-86614000D01*
X163188000Y-83820000D02*
X163188000Y-85224000D01*
X157988000Y-101346000D02*
X157734000Y-101600000D01*
X160274000Y-99298000D02*
X160036000Y-99298000D01*
X160036000Y-99298000D02*
X157734000Y-101600000D01*
X157734000Y-101600000D02*
X155505998Y-103828002D01*
X146812000Y-105410000D02*
X146812000Y-110236000D01*
X148393998Y-103828002D02*
X146812000Y-105410000D01*
X155505998Y-103828002D02*
X148393998Y-103828002D01*
X160528000Y-88204000D02*
X160528000Y-86614000D01*
X163188000Y-83954000D02*
X163188000Y-83820000D01*
X163188000Y-83820000D02*
X163188000Y-81026000D01*
X160528000Y-86614000D02*
X163188000Y-83954000D01*
X138430000Y-99298000D02*
X138430000Y-100838000D01*
X138430000Y-100838000D02*
X138176000Y-101092000D01*
X138176000Y-101092000D02*
X138176000Y-109220000D01*
X138176000Y-109220000D02*
X139192000Y-110236000D01*
X141478000Y-86868000D02*
X140462000Y-87884000D01*
X140462000Y-88204000D02*
X140462000Y-87884000D01*
X140462000Y-88204000D02*
X140462000Y-88138000D01*
X140462000Y-88204000D02*
X140462000Y-86360000D01*
X142494000Y-84328000D02*
X142494000Y-81026000D01*
X140462000Y-86360000D02*
X142494000Y-84328000D01*
X135890000Y-99298000D02*
X135890000Y-101600000D01*
X135890000Y-101600000D02*
X136652000Y-102362000D01*
X136652000Y-102362000D02*
X136652000Y-110236000D01*
X138938000Y-86868000D02*
X137922000Y-87884000D01*
X137922000Y-88204000D02*
X137922000Y-87884000D01*
X137922000Y-88204000D02*
X137922000Y-86360000D01*
X139994000Y-84288000D02*
X139994000Y-81026000D01*
X137922000Y-86360000D02*
X139994000Y-84288000D01*
X133350000Y-99298000D02*
X133350000Y-102362000D01*
X133350000Y-102362000D02*
X134112000Y-103124000D01*
X134112000Y-103124000D02*
X134112000Y-110236000D01*
X136398000Y-86868000D02*
X135382000Y-87884000D01*
X135382000Y-88204000D02*
X135382000Y-87884000D01*
X135382000Y-88204000D02*
X135382000Y-86360000D01*
X137494000Y-84248000D02*
X137494000Y-81026000D01*
X135382000Y-86360000D02*
X137494000Y-84248000D01*
X131064000Y-103124000D02*
X131064000Y-109728000D01*
X131064000Y-109728000D02*
X131572000Y-110236000D01*
X131064000Y-99552000D02*
X131064000Y-103124000D01*
X132842000Y-87630000D02*
X132842000Y-88204000D01*
X132842000Y-87630000D02*
X133604000Y-86868000D01*
X131064000Y-99552000D02*
X130810000Y-99298000D01*
X132842000Y-88204000D02*
X132842000Y-86360000D01*
X132842000Y-86360000D02*
X134994000Y-84208000D01*
X134994000Y-84208000D02*
X134994000Y-81026000D01*
X158242000Y-88204000D02*
X158242000Y-87884000D01*
X158242000Y-87884000D02*
X159258000Y-86868000D01*
X154432000Y-125476000D02*
X154432000Y-120904000D01*
X154432000Y-120904000D02*
X154432000Y-118348000D01*
X158242000Y-88204000D02*
X158242000Y-86614000D01*
X160688000Y-84168000D02*
X160688000Y-81026000D01*
X158242000Y-86614000D02*
X160688000Y-84168000D01*
X159512000Y-125476000D02*
X159512000Y-118348000D01*
X130302000Y-87630000D02*
X129286000Y-86614000D01*
X130302000Y-88204000D02*
X130302000Y-87630000D01*
X130302000Y-87630000D02*
X130302000Y-86360000D01*
X132494000Y-84168000D02*
X132494000Y-81026000D01*
X130302000Y-86360000D02*
X132494000Y-84168000D01*
X162052000Y-125476000D02*
X162052000Y-118348000D01*
X127762000Y-87122000D02*
X126492000Y-85852000D01*
X127762000Y-88204000D02*
X127762000Y-87122000D01*
X127762000Y-88204000D02*
X127762000Y-87376000D01*
X127762000Y-87376000D02*
X127762000Y-88204000D01*
X127762000Y-88204000D02*
X127762000Y-86360000D01*
X129994000Y-84128000D02*
X129994000Y-81026000D01*
X127762000Y-86360000D02*
X129994000Y-84128000D01*
X155956000Y-87630000D02*
X156972000Y-86614000D01*
X155956000Y-88204000D02*
X155956000Y-87630000D01*
X156972000Y-125476000D02*
X156972000Y-121666000D01*
X156972000Y-121666000D02*
X156972000Y-118348000D01*
X155956000Y-88204000D02*
X155956000Y-86360000D01*
X158188000Y-84128000D02*
X158188000Y-81026000D01*
X155956000Y-86360000D02*
X158188000Y-84128000D01*
X127762000Y-90104000D02*
X127762000Y-92202000D01*
X126746000Y-93218000D02*
X127000000Y-93218000D01*
X127762000Y-92202000D02*
X126746000Y-93218000D01*
X130302000Y-90104000D02*
X130302000Y-92202000D01*
X129286000Y-93218000D02*
X129540000Y-93218000D01*
X130302000Y-92202000D02*
X129286000Y-93218000D01*
X132842000Y-90104000D02*
X132842000Y-92202000D01*
X132842000Y-92202000D02*
X131826000Y-93218000D01*
X135382000Y-90104000D02*
X135382000Y-92202000D01*
X135382000Y-92202000D02*
X134366000Y-93218000D01*
X137922000Y-90104000D02*
X137922000Y-92202000D01*
X137922000Y-92202000D02*
X136906000Y-93218000D01*
X140462000Y-90104000D02*
X140462000Y-92456000D01*
X140462000Y-92456000D02*
X139700000Y-93218000D01*
X155956000Y-90104000D02*
X155956000Y-92456000D01*
X155956000Y-92456000D02*
X155194000Y-93218000D01*
X158242000Y-90104000D02*
X158242000Y-92456000D01*
X158242000Y-92456000D02*
X157480000Y-93218000D01*
X160528000Y-90104000D02*
X160528000Y-92456000D01*
X159766000Y-93218000D02*
X160020000Y-93218000D01*
X160528000Y-92456000D02*
X159766000Y-93218000D01*
X162814000Y-90104000D02*
X162814000Y-92456000D01*
X162814000Y-92456000D02*
X162052000Y-93218000D01*
X165100000Y-90104000D02*
X165100000Y-92456000D01*
X164338000Y-93218000D02*
X164084000Y-93218000D01*
X165100000Y-92456000D02*
X164338000Y-93218000D01*
X167386000Y-90104000D02*
X167386000Y-92456000D01*
X123952000Y-93472000D02*
X123952000Y-110236000D01*
X124206000Y-93218000D02*
X123952000Y-93472000D01*
X166624000Y-93218000D02*
X164084000Y-93218000D01*
X164084000Y-93218000D02*
X162052000Y-93218000D01*
X162052000Y-93218000D02*
X160020000Y-93218000D01*
X160020000Y-93218000D02*
X157480000Y-93218000D01*
X157480000Y-93218000D02*
X155194000Y-93218000D01*
X155194000Y-93218000D02*
X139700000Y-93218000D01*
X139700000Y-93218000D02*
X136906000Y-93218000D01*
X136906000Y-93218000D02*
X134366000Y-93218000D01*
X134366000Y-93218000D02*
X131826000Y-93218000D01*
X131826000Y-93218000D02*
X129540000Y-93218000D01*
X129540000Y-93218000D02*
X127000000Y-93218000D01*
X127000000Y-93218000D02*
X124206000Y-93218000D01*
X167386000Y-92456000D02*
X166624000Y-93218000D01*
D20*
G36*
X177399239Y-76993709D02*
X176648345Y-77743293D01*
X176241464Y-78723173D01*
X176240538Y-79784172D01*
X176645709Y-80764761D01*
X177395293Y-81515655D01*
X178375173Y-81922536D01*
X179436172Y-81923462D01*
X180416761Y-81518291D01*
X181167655Y-80768707D01*
X181229000Y-80620972D01*
X181229000Y-129889326D01*
X181170291Y-129747239D01*
X180420707Y-128996345D01*
X179440827Y-128589464D01*
X178379828Y-128588538D01*
X177399239Y-128993709D01*
X176648345Y-129743293D01*
X176241464Y-130723173D01*
X176240538Y-131784172D01*
X176645709Y-132764761D01*
X177395293Y-133515655D01*
X177913902Y-133731000D01*
X117901966Y-133731000D01*
X118416761Y-133518291D01*
X119167655Y-132768707D01*
X119574536Y-131788827D01*
X119575462Y-130727828D01*
X119170291Y-129747239D01*
X118420707Y-128996345D01*
X117440827Y-128589464D01*
X116379828Y-128588538D01*
X115399239Y-128993709D01*
X114648345Y-129743293D01*
X114427000Y-130276352D01*
X114427000Y-124626000D01*
X122454560Y-124626000D01*
X122454560Y-126326000D01*
X122498838Y-126561317D01*
X122637910Y-126777441D01*
X122850110Y-126922431D01*
X123102000Y-126973440D01*
X124802000Y-126973440D01*
X125037317Y-126929162D01*
X125253441Y-126790090D01*
X125398431Y-126577890D01*
X125412086Y-126510459D01*
X125441946Y-126555147D01*
X125923715Y-126877054D01*
X126492000Y-126990093D01*
X127060285Y-126877054D01*
X127542054Y-126555147D01*
X127762000Y-126225974D01*
X127981946Y-126555147D01*
X128463715Y-126877054D01*
X129032000Y-126990093D01*
X129600285Y-126877054D01*
X130082054Y-126555147D01*
X130302000Y-126225974D01*
X130521946Y-126555147D01*
X131003715Y-126877054D01*
X131572000Y-126990093D01*
X132140285Y-126877054D01*
X132622054Y-126555147D01*
X132842000Y-126225974D01*
X133061946Y-126555147D01*
X133543715Y-126877054D01*
X134112000Y-126990093D01*
X134680285Y-126877054D01*
X135162054Y-126555147D01*
X135382000Y-126225974D01*
X135601946Y-126555147D01*
X136083715Y-126877054D01*
X136652000Y-126990093D01*
X137220285Y-126877054D01*
X137702054Y-126555147D01*
X137922000Y-126225974D01*
X138141946Y-126555147D01*
X138623715Y-126877054D01*
X139192000Y-126990093D01*
X139760285Y-126877054D01*
X140242054Y-126555147D01*
X140462000Y-126225974D01*
X140681946Y-126555147D01*
X141163715Y-126877054D01*
X141732000Y-126990093D01*
X142300285Y-126877054D01*
X142782054Y-126555147D01*
X143002000Y-126225974D01*
X143221946Y-126555147D01*
X143703715Y-126877054D01*
X144272000Y-126990093D01*
X144840285Y-126877054D01*
X145322054Y-126555147D01*
X145542000Y-126225974D01*
X145761946Y-126555147D01*
X146243715Y-126877054D01*
X146812000Y-126990093D01*
X147380285Y-126877054D01*
X147862054Y-126555147D01*
X148082000Y-126225974D01*
X148301946Y-126555147D01*
X148783715Y-126877054D01*
X149352000Y-126990093D01*
X149920285Y-126877054D01*
X150402054Y-126555147D01*
X150622000Y-126225974D01*
X150841946Y-126555147D01*
X151323715Y-126877054D01*
X151892000Y-126990093D01*
X152460285Y-126877054D01*
X152942054Y-126555147D01*
X153162000Y-126225974D01*
X153381946Y-126555147D01*
X153863715Y-126877054D01*
X154432000Y-126990093D01*
X155000285Y-126877054D01*
X155482054Y-126555147D01*
X155702000Y-126225974D01*
X155921946Y-126555147D01*
X156403715Y-126877054D01*
X156972000Y-126990093D01*
X157540285Y-126877054D01*
X158022054Y-126555147D01*
X158242000Y-126225974D01*
X158461946Y-126555147D01*
X158943715Y-126877054D01*
X159512000Y-126990093D01*
X160080285Y-126877054D01*
X160562054Y-126555147D01*
X160782000Y-126225974D01*
X161001946Y-126555147D01*
X161483715Y-126877054D01*
X162052000Y-126990093D01*
X162620285Y-126877054D01*
X163102054Y-126555147D01*
X163322000Y-126225974D01*
X163541946Y-126555147D01*
X164023715Y-126877054D01*
X164592000Y-126990093D01*
X165160285Y-126877054D01*
X165642054Y-126555147D01*
X165862000Y-126225974D01*
X166081946Y-126555147D01*
X166563715Y-126877054D01*
X167132000Y-126990093D01*
X167700285Y-126877054D01*
X168182054Y-126555147D01*
X168409702Y-126214447D01*
X168476817Y-126357358D01*
X168905076Y-126747645D01*
X169315110Y-126917476D01*
X169545000Y-126796155D01*
X169545000Y-125603000D01*
X169799000Y-125603000D01*
X169799000Y-126796155D01*
X170028890Y-126917476D01*
X170438924Y-126747645D01*
X170867183Y-126357358D01*
X170942000Y-126198046D01*
X171016817Y-126357358D01*
X171445076Y-126747645D01*
X171855110Y-126917476D01*
X172085000Y-126796155D01*
X172085000Y-125603000D01*
X172339000Y-125603000D01*
X172339000Y-126796155D01*
X172568890Y-126917476D01*
X172978924Y-126747645D01*
X173407183Y-126357358D01*
X173653486Y-125832892D01*
X173532819Y-125603000D01*
X172339000Y-125603000D01*
X172085000Y-125603000D01*
X169799000Y-125603000D01*
X169545000Y-125603000D01*
X169525000Y-125603000D01*
X169525000Y-125349000D01*
X169545000Y-125349000D01*
X169545000Y-124155845D01*
X169799000Y-124155845D01*
X169799000Y-125349000D01*
X172085000Y-125349000D01*
X172085000Y-124155845D01*
X172339000Y-124155845D01*
X172339000Y-125349000D01*
X173532819Y-125349000D01*
X173653486Y-125119108D01*
X173407183Y-124594642D01*
X172978924Y-124204355D01*
X172568890Y-124034524D01*
X172339000Y-124155845D01*
X172085000Y-124155845D01*
X171855110Y-124034524D01*
X171445076Y-124204355D01*
X171016817Y-124594642D01*
X170942000Y-124753954D01*
X170867183Y-124594642D01*
X170438924Y-124204355D01*
X170028890Y-124034524D01*
X169799000Y-124155845D01*
X169545000Y-124155845D01*
X169315110Y-124034524D01*
X168905076Y-124204355D01*
X168476817Y-124594642D01*
X168409702Y-124737553D01*
X168182054Y-124396853D01*
X167700285Y-124074946D01*
X167132000Y-123961907D01*
X166563715Y-124074946D01*
X166081946Y-124396853D01*
X165862000Y-124726026D01*
X165642054Y-124396853D01*
X165160285Y-124074946D01*
X164592000Y-123961907D01*
X164023715Y-124074946D01*
X163541946Y-124396853D01*
X163322000Y-124726026D01*
X163102054Y-124396853D01*
X162812000Y-124203046D01*
X162812000Y-119470038D01*
X162912317Y-119451162D01*
X163128441Y-119312090D01*
X163273431Y-119099890D01*
X163324440Y-118848000D01*
X163324440Y-117848000D01*
X163280162Y-117612683D01*
X163141090Y-117396559D01*
X163072994Y-117350031D01*
X163215327Y-117207698D01*
X163312000Y-116974309D01*
X163312000Y-116633750D01*
X163153250Y-116475000D01*
X162179000Y-116475000D01*
X162179000Y-116495000D01*
X161925000Y-116495000D01*
X161925000Y-116475000D01*
X160950750Y-116475000D01*
X160792000Y-116633750D01*
X160792000Y-116974309D01*
X160888673Y-117207698D01*
X161029910Y-117348936D01*
X160975559Y-117383910D01*
X160830569Y-117596110D01*
X160782090Y-117835509D01*
X160740162Y-117612683D01*
X160601090Y-117396559D01*
X160532994Y-117350031D01*
X160675327Y-117207698D01*
X160772000Y-116974309D01*
X160772000Y-116633750D01*
X160613250Y-116475000D01*
X159639000Y-116475000D01*
X159639000Y-116495000D01*
X159385000Y-116495000D01*
X159385000Y-116475000D01*
X158410750Y-116475000D01*
X158252000Y-116633750D01*
X158252000Y-116974309D01*
X158348673Y-117207698D01*
X158489910Y-117348936D01*
X158435559Y-117383910D01*
X158290569Y-117596110D01*
X158242090Y-117835509D01*
X158200162Y-117612683D01*
X158061090Y-117396559D01*
X157992994Y-117350031D01*
X158135327Y-117207698D01*
X158232000Y-116974309D01*
X158232000Y-116633750D01*
X158073250Y-116475000D01*
X157099000Y-116475000D01*
X157099000Y-116495000D01*
X156845000Y-116495000D01*
X156845000Y-116475000D01*
X155870750Y-116475000D01*
X155712000Y-116633750D01*
X155712000Y-116974309D01*
X155808673Y-117207698D01*
X155949910Y-117348936D01*
X155895559Y-117383910D01*
X155750569Y-117596110D01*
X155702090Y-117835509D01*
X155660162Y-117612683D01*
X155521090Y-117396559D01*
X155452994Y-117350031D01*
X155595327Y-117207698D01*
X155692000Y-116974309D01*
X155692000Y-116633750D01*
X155533250Y-116475000D01*
X154559000Y-116475000D01*
X154559000Y-116495000D01*
X154305000Y-116495000D01*
X154305000Y-116475000D01*
X153330750Y-116475000D01*
X153172000Y-116633750D01*
X153172000Y-116974309D01*
X153268673Y-117207698D01*
X153409910Y-117348936D01*
X153355559Y-117383910D01*
X153210569Y-117596110D01*
X153159560Y-117848000D01*
X153159560Y-118848000D01*
X153203838Y-119083317D01*
X153342910Y-119299441D01*
X153555110Y-119444431D01*
X153672000Y-119468102D01*
X153672000Y-120341537D01*
X153639808Y-120373673D01*
X153497162Y-120717201D01*
X153496838Y-121089167D01*
X153638883Y-121432943D01*
X153672000Y-121466118D01*
X153672000Y-124203046D01*
X153381946Y-124396853D01*
X153162000Y-124726026D01*
X152942054Y-124396853D01*
X152460285Y-124074946D01*
X151892000Y-123961907D01*
X151323715Y-124074946D01*
X150841946Y-124396853D01*
X150622000Y-124726026D01*
X150402054Y-124396853D01*
X149920285Y-124074946D01*
X149352000Y-123961907D01*
X148783715Y-124074946D01*
X148301946Y-124396853D01*
X148082000Y-124726026D01*
X147862054Y-124396853D01*
X147380285Y-124074946D01*
X146812000Y-123961907D01*
X146243715Y-124074946D01*
X145761946Y-124396853D01*
X145542000Y-124726026D01*
X145322054Y-124396853D01*
X144840285Y-124074946D01*
X144272000Y-123961907D01*
X143703715Y-124074946D01*
X143221946Y-124396853D01*
X143002000Y-124726026D01*
X142782054Y-124396853D01*
X142300285Y-124074946D01*
X141732000Y-123961907D01*
X141163715Y-124074946D01*
X140681946Y-124396853D01*
X140462000Y-124726026D01*
X140242054Y-124396853D01*
X139760285Y-124074946D01*
X139192000Y-123961907D01*
X138623715Y-124074946D01*
X138141946Y-124396853D01*
X137922000Y-124726026D01*
X137702054Y-124396853D01*
X137220285Y-124074946D01*
X136652000Y-123961907D01*
X136083715Y-124074946D01*
X135601946Y-124396853D01*
X135382000Y-124726026D01*
X135162054Y-124396853D01*
X134680285Y-124074946D01*
X134112000Y-123961907D01*
X133543715Y-124074946D01*
X133061946Y-124396853D01*
X132842000Y-124726026D01*
X132622054Y-124396853D01*
X132140285Y-124074946D01*
X131572000Y-123961907D01*
X131003715Y-124074946D01*
X130521946Y-124396853D01*
X130302000Y-124726026D01*
X130082054Y-124396853D01*
X129600285Y-124074946D01*
X129032000Y-123961907D01*
X128463715Y-124074946D01*
X127981946Y-124396853D01*
X127762000Y-124726026D01*
X127542054Y-124396853D01*
X127060285Y-124074946D01*
X126492000Y-123961907D01*
X125923715Y-124074946D01*
X125441946Y-124396853D01*
X125414150Y-124438452D01*
X125405162Y-124390683D01*
X125266090Y-124174559D01*
X125053890Y-124029569D01*
X124802000Y-123978560D01*
X123102000Y-123978560D01*
X122866683Y-124022838D01*
X122650559Y-124161910D01*
X122505569Y-124374110D01*
X122454560Y-124626000D01*
X114427000Y-124626000D01*
X114427000Y-115721691D01*
X153172000Y-115721691D01*
X153172000Y-116062250D01*
X153330750Y-116221000D01*
X154305000Y-116221000D01*
X154305000Y-115371750D01*
X154559000Y-115371750D01*
X154559000Y-116221000D01*
X155533250Y-116221000D01*
X155692000Y-116062250D01*
X155692000Y-115721691D01*
X155712000Y-115721691D01*
X155712000Y-116062250D01*
X155870750Y-116221000D01*
X156845000Y-116221000D01*
X156845000Y-115371750D01*
X157099000Y-115371750D01*
X157099000Y-116221000D01*
X158073250Y-116221000D01*
X158232000Y-116062250D01*
X158232000Y-115721691D01*
X158252000Y-115721691D01*
X158252000Y-116062250D01*
X158410750Y-116221000D01*
X159385000Y-116221000D01*
X159385000Y-115371750D01*
X159639000Y-115371750D01*
X159639000Y-116221000D01*
X160613250Y-116221000D01*
X160772000Y-116062250D01*
X160772000Y-115721691D01*
X160792000Y-115721691D01*
X160792000Y-116062250D01*
X160950750Y-116221000D01*
X161925000Y-116221000D01*
X161925000Y-115371750D01*
X162179000Y-115371750D01*
X162179000Y-116221000D01*
X163153250Y-116221000D01*
X163312000Y-116062250D01*
X163312000Y-115721691D01*
X163215327Y-115488302D01*
X163036699Y-115309673D01*
X162803310Y-115213000D01*
X162337750Y-115213000D01*
X162179000Y-115371750D01*
X161925000Y-115371750D01*
X161766250Y-115213000D01*
X161300690Y-115213000D01*
X161067301Y-115309673D01*
X160888673Y-115488302D01*
X160792000Y-115721691D01*
X160772000Y-115721691D01*
X160675327Y-115488302D01*
X160496699Y-115309673D01*
X160263310Y-115213000D01*
X159797750Y-115213000D01*
X159639000Y-115371750D01*
X159385000Y-115371750D01*
X159226250Y-115213000D01*
X158760690Y-115213000D01*
X158527301Y-115309673D01*
X158348673Y-115488302D01*
X158252000Y-115721691D01*
X158232000Y-115721691D01*
X158135327Y-115488302D01*
X157956699Y-115309673D01*
X157723310Y-115213000D01*
X157257750Y-115213000D01*
X157099000Y-115371750D01*
X156845000Y-115371750D01*
X156686250Y-115213000D01*
X156220690Y-115213000D01*
X155987301Y-115309673D01*
X155808673Y-115488302D01*
X155712000Y-115721691D01*
X155692000Y-115721691D01*
X155595327Y-115488302D01*
X155416699Y-115309673D01*
X155183310Y-115213000D01*
X154717750Y-115213000D01*
X154559000Y-115371750D01*
X154305000Y-115371750D01*
X154146250Y-115213000D01*
X153680690Y-115213000D01*
X153447301Y-115309673D01*
X153268673Y-115488302D01*
X153172000Y-115721691D01*
X114427000Y-115721691D01*
X114427000Y-109386000D01*
X122454560Y-109386000D01*
X122454560Y-111086000D01*
X122498838Y-111321317D01*
X122637910Y-111537441D01*
X122850110Y-111682431D01*
X123102000Y-111733440D01*
X124802000Y-111733440D01*
X125037317Y-111689162D01*
X125253441Y-111550090D01*
X125398431Y-111337890D01*
X125420301Y-111229893D01*
X125725076Y-111507645D01*
X126135110Y-111677476D01*
X126365000Y-111556155D01*
X126365000Y-110363000D01*
X126345000Y-110363000D01*
X126345000Y-110109000D01*
X126365000Y-110109000D01*
X126365000Y-108915845D01*
X126619000Y-108915845D01*
X126619000Y-110109000D01*
X126639000Y-110109000D01*
X126639000Y-110363000D01*
X126619000Y-110363000D01*
X126619000Y-111556155D01*
X126848890Y-111677476D01*
X127258924Y-111507645D01*
X127687183Y-111117358D01*
X127754298Y-110974447D01*
X127981946Y-111315147D01*
X128463715Y-111637054D01*
X129032000Y-111750093D01*
X129600285Y-111637054D01*
X130082054Y-111315147D01*
X130302000Y-110985974D01*
X130521946Y-111315147D01*
X131003715Y-111637054D01*
X131572000Y-111750093D01*
X132140285Y-111637054D01*
X132622054Y-111315147D01*
X132842000Y-110985974D01*
X133061946Y-111315147D01*
X133543715Y-111637054D01*
X134112000Y-111750093D01*
X134680285Y-111637054D01*
X135162054Y-111315147D01*
X135382000Y-110985974D01*
X135601946Y-111315147D01*
X136083715Y-111637054D01*
X136652000Y-111750093D01*
X137220285Y-111637054D01*
X137702054Y-111315147D01*
X137922000Y-110985974D01*
X138141946Y-111315147D01*
X138623715Y-111637054D01*
X139192000Y-111750093D01*
X139760285Y-111637054D01*
X140242054Y-111315147D01*
X140462000Y-110985974D01*
X140681946Y-111315147D01*
X141163715Y-111637054D01*
X141732000Y-111750093D01*
X142300285Y-111637054D01*
X142782054Y-111315147D01*
X143002000Y-110985974D01*
X143221946Y-111315147D01*
X143703715Y-111637054D01*
X144272000Y-111750093D01*
X144840285Y-111637054D01*
X145322054Y-111315147D01*
X145542000Y-110985974D01*
X145761946Y-111315147D01*
X146243715Y-111637054D01*
X146812000Y-111750093D01*
X147380285Y-111637054D01*
X147862054Y-111315147D01*
X148082000Y-110985974D01*
X148301946Y-111315147D01*
X148783715Y-111637054D01*
X149352000Y-111750093D01*
X149920285Y-111637054D01*
X150402054Y-111315147D01*
X150622000Y-110985974D01*
X150841946Y-111315147D01*
X151323715Y-111637054D01*
X151892000Y-111750093D01*
X152460285Y-111637054D01*
X152942054Y-111315147D01*
X153162000Y-110985974D01*
X153381946Y-111315147D01*
X153863715Y-111637054D01*
X154432000Y-111750093D01*
X155000285Y-111637054D01*
X155482054Y-111315147D01*
X155702000Y-110985974D01*
X155921946Y-111315147D01*
X156403715Y-111637054D01*
X156972000Y-111750093D01*
X157540285Y-111637054D01*
X158022054Y-111315147D01*
X158242000Y-110985974D01*
X158461946Y-111315147D01*
X158943715Y-111637054D01*
X159512000Y-111750093D01*
X160080285Y-111637054D01*
X160562054Y-111315147D01*
X160782000Y-110985974D01*
X161001946Y-111315147D01*
X161483715Y-111637054D01*
X162052000Y-111750093D01*
X162620285Y-111637054D01*
X163102054Y-111315147D01*
X163322000Y-110985974D01*
X163541946Y-111315147D01*
X164023715Y-111637054D01*
X164592000Y-111750093D01*
X165160285Y-111637054D01*
X165642054Y-111315147D01*
X165862000Y-110985974D01*
X166081946Y-111315147D01*
X166563715Y-111637054D01*
X167132000Y-111750093D01*
X167700285Y-111637054D01*
X168182054Y-111315147D01*
X168402000Y-110985974D01*
X168621946Y-111315147D01*
X169103715Y-111637054D01*
X169672000Y-111750093D01*
X170240285Y-111637054D01*
X170722054Y-111315147D01*
X170942000Y-110985974D01*
X171161946Y-111315147D01*
X171643715Y-111637054D01*
X172212000Y-111750093D01*
X172780285Y-111637054D01*
X173262054Y-111315147D01*
X173583961Y-110833378D01*
X173697000Y-110265093D01*
X173697000Y-110206907D01*
X173583961Y-109638622D01*
X173262054Y-109156853D01*
X172780285Y-108834946D01*
X172212000Y-108721907D01*
X171643715Y-108834946D01*
X171161946Y-109156853D01*
X170942000Y-109486026D01*
X170722054Y-109156853D01*
X170240285Y-108834946D01*
X169672000Y-108721907D01*
X169103715Y-108834946D01*
X168621946Y-109156853D01*
X168402000Y-109486026D01*
X168182054Y-109156853D01*
X167700285Y-108834946D01*
X167132000Y-108721907D01*
X166563715Y-108834946D01*
X166081946Y-109156853D01*
X165862000Y-109486026D01*
X165642054Y-109156853D01*
X165160285Y-108834946D01*
X164592000Y-108721907D01*
X164023715Y-108834946D01*
X163541946Y-109156853D01*
X163322000Y-109486026D01*
X163102054Y-109156853D01*
X162620285Y-108834946D01*
X162052000Y-108721907D01*
X161483715Y-108834946D01*
X161001946Y-109156853D01*
X160782000Y-109486026D01*
X160562054Y-109156853D01*
X160080285Y-108834946D01*
X159512000Y-108721907D01*
X158943715Y-108834946D01*
X158461946Y-109156853D01*
X158242000Y-109486026D01*
X158022054Y-109156853D01*
X157540285Y-108834946D01*
X156972000Y-108721907D01*
X156403715Y-108834946D01*
X155921946Y-109156853D01*
X155702000Y-109486026D01*
X155482054Y-109156853D01*
X155000285Y-108834946D01*
X154432000Y-108721907D01*
X153863715Y-108834946D01*
X153381946Y-109156853D01*
X153162000Y-109486026D01*
X152942054Y-109156853D01*
X152460285Y-108834946D01*
X151892000Y-108721907D01*
X151323715Y-108834946D01*
X150841946Y-109156853D01*
X150622000Y-109486026D01*
X150402054Y-109156853D01*
X150112000Y-108963046D01*
X150112000Y-105154000D01*
X157734000Y-105154000D01*
X158024839Y-105096148D01*
X158271401Y-104931401D01*
X160159680Y-103043122D01*
X160205167Y-103043162D01*
X160548943Y-102901117D01*
X160812192Y-102638327D01*
X160954838Y-102294799D01*
X160954879Y-102247923D01*
X162757362Y-100445440D01*
X163185000Y-100445440D01*
X163420317Y-100401162D01*
X163636441Y-100262090D01*
X163781431Y-100049890D01*
X163832440Y-99798000D01*
X163832440Y-98798000D01*
X163788162Y-98562683D01*
X163649090Y-98346559D01*
X163580994Y-98300031D01*
X163723327Y-98157698D01*
X163820000Y-97924309D01*
X163820000Y-97583750D01*
X163661250Y-97425000D01*
X162687000Y-97425000D01*
X162687000Y-97445000D01*
X162433000Y-97445000D01*
X162433000Y-97425000D01*
X161458750Y-97425000D01*
X161417000Y-97466750D01*
X161375250Y-97425000D01*
X160401000Y-97425000D01*
X160401000Y-97445000D01*
X160147000Y-97445000D01*
X160147000Y-97425000D01*
X159172750Y-97425000D01*
X159131000Y-97466750D01*
X159089250Y-97425000D01*
X158115000Y-97425000D01*
X158115000Y-97445000D01*
X157861000Y-97445000D01*
X157861000Y-97425000D01*
X156886750Y-97425000D01*
X156845000Y-97466750D01*
X156803250Y-97425000D01*
X155829000Y-97425000D01*
X155829000Y-97445000D01*
X155575000Y-97445000D01*
X155575000Y-97425000D01*
X154600750Y-97425000D01*
X154442000Y-97583750D01*
X154442000Y-97924309D01*
X154538673Y-98157698D01*
X154679910Y-98298936D01*
X154625559Y-98333910D01*
X154480569Y-98546110D01*
X154429560Y-98798000D01*
X154429560Y-99798000D01*
X154473838Y-100033317D01*
X154612910Y-100249441D01*
X154825110Y-100394431D01*
X154942000Y-100418102D01*
X154942000Y-101539198D01*
X154371198Y-102110000D01*
X147066000Y-102110000D01*
X146775161Y-102167852D01*
X146528599Y-102332599D01*
X141194599Y-107666599D01*
X141029852Y-107913161D01*
X140972000Y-108204000D01*
X140972000Y-108963046D01*
X140681946Y-109156853D01*
X140462000Y-109486026D01*
X140242054Y-109156853D01*
X139760285Y-108834946D01*
X139192000Y-108721907D01*
X138936000Y-108772829D01*
X138936000Y-101640597D01*
X138958943Y-101631117D01*
X139222192Y-101368327D01*
X139364838Y-101024799D01*
X139365162Y-100652833D01*
X139263276Y-100406250D01*
X139290317Y-100401162D01*
X139506441Y-100262090D01*
X139651431Y-100049890D01*
X139702440Y-99798000D01*
X139702440Y-98798000D01*
X139658162Y-98562683D01*
X139519090Y-98346559D01*
X139450994Y-98300031D01*
X139593327Y-98157698D01*
X139690000Y-97924309D01*
X139690000Y-97583750D01*
X139531250Y-97425000D01*
X138557000Y-97425000D01*
X138557000Y-97445000D01*
X138303000Y-97445000D01*
X138303000Y-97425000D01*
X137328750Y-97425000D01*
X137170000Y-97583750D01*
X137170000Y-97924309D01*
X137266673Y-98157698D01*
X137407910Y-98298936D01*
X137353559Y-98333910D01*
X137208569Y-98546110D01*
X137160090Y-98785509D01*
X137118162Y-98562683D01*
X136979090Y-98346559D01*
X136910994Y-98300031D01*
X137053327Y-98157698D01*
X137150000Y-97924309D01*
X137150000Y-97583750D01*
X136991250Y-97425000D01*
X136017000Y-97425000D01*
X136017000Y-97445000D01*
X135763000Y-97445000D01*
X135763000Y-97425000D01*
X134788750Y-97425000D01*
X134630000Y-97583750D01*
X134630000Y-97924309D01*
X134726673Y-98157698D01*
X134867910Y-98298936D01*
X134813559Y-98333910D01*
X134668569Y-98546110D01*
X134620090Y-98785509D01*
X134578162Y-98562683D01*
X134439090Y-98346559D01*
X134370994Y-98300031D01*
X134513327Y-98157698D01*
X134610000Y-97924309D01*
X134610000Y-97583750D01*
X134451250Y-97425000D01*
X133477000Y-97425000D01*
X133477000Y-97445000D01*
X133223000Y-97445000D01*
X133223000Y-97425000D01*
X132248750Y-97425000D01*
X132090000Y-97583750D01*
X132090000Y-97924309D01*
X132186673Y-98157698D01*
X132327910Y-98298936D01*
X132273559Y-98333910D01*
X132128569Y-98546110D01*
X132080090Y-98785509D01*
X132038162Y-98562683D01*
X131899090Y-98346559D01*
X131830994Y-98300031D01*
X131973327Y-98157698D01*
X132070000Y-97924309D01*
X132070000Y-97583750D01*
X131911250Y-97425000D01*
X130937000Y-97425000D01*
X130937000Y-97445000D01*
X130683000Y-97445000D01*
X130683000Y-97425000D01*
X129708750Y-97425000D01*
X129550000Y-97583750D01*
X129550000Y-97924309D01*
X129646673Y-98157698D01*
X129787910Y-98298936D01*
X129733559Y-98333910D01*
X129588569Y-98546110D01*
X129537560Y-98798000D01*
X129537560Y-99798000D01*
X129581838Y-100033317D01*
X129720910Y-100249441D01*
X129933110Y-100394431D01*
X130185000Y-100445440D01*
X130304000Y-100445440D01*
X130304000Y-102561537D01*
X130271808Y-102593673D01*
X130129162Y-102937201D01*
X130128838Y-103309167D01*
X130270883Y-103652943D01*
X130304000Y-103686118D01*
X130304000Y-109483033D01*
X130302000Y-109486026D01*
X130082054Y-109156853D01*
X129600285Y-108834946D01*
X129032000Y-108721907D01*
X128463715Y-108834946D01*
X127981946Y-109156853D01*
X127754298Y-109497553D01*
X127687183Y-109354642D01*
X127258924Y-108964355D01*
X126848890Y-108794524D01*
X126619000Y-108915845D01*
X126365000Y-108915845D01*
X126135110Y-108794524D01*
X125725076Y-108964355D01*
X125422063Y-109240501D01*
X125405162Y-109150683D01*
X125266090Y-108934559D01*
X125053890Y-108789569D01*
X124802000Y-108738560D01*
X124712000Y-108738560D01*
X124712000Y-96671691D01*
X129550000Y-96671691D01*
X129550000Y-97012250D01*
X129708750Y-97171000D01*
X130683000Y-97171000D01*
X130683000Y-96321750D01*
X130937000Y-96321750D01*
X130937000Y-97171000D01*
X131911250Y-97171000D01*
X132070000Y-97012250D01*
X132070000Y-96671691D01*
X132090000Y-96671691D01*
X132090000Y-97012250D01*
X132248750Y-97171000D01*
X133223000Y-97171000D01*
X133223000Y-96321750D01*
X133477000Y-96321750D01*
X133477000Y-97171000D01*
X134451250Y-97171000D01*
X134610000Y-97012250D01*
X134610000Y-96671691D01*
X134630000Y-96671691D01*
X134630000Y-97012250D01*
X134788750Y-97171000D01*
X135763000Y-97171000D01*
X135763000Y-96321750D01*
X136017000Y-96321750D01*
X136017000Y-97171000D01*
X136991250Y-97171000D01*
X137150000Y-97012250D01*
X137150000Y-96671691D01*
X137170000Y-96671691D01*
X137170000Y-97012250D01*
X137328750Y-97171000D01*
X138303000Y-97171000D01*
X138303000Y-96321750D01*
X138557000Y-96321750D01*
X138557000Y-97171000D01*
X139531250Y-97171000D01*
X139690000Y-97012250D01*
X139690000Y-96671691D01*
X154442000Y-96671691D01*
X154442000Y-97012250D01*
X154600750Y-97171000D01*
X155575000Y-97171000D01*
X155575000Y-96321750D01*
X155829000Y-96321750D01*
X155829000Y-97171000D01*
X156803250Y-97171000D01*
X156845000Y-97129250D01*
X156886750Y-97171000D01*
X157861000Y-97171000D01*
X157861000Y-96321750D01*
X158115000Y-96321750D01*
X158115000Y-97171000D01*
X159089250Y-97171000D01*
X159131000Y-97129250D01*
X159172750Y-97171000D01*
X160147000Y-97171000D01*
X160147000Y-96321750D01*
X160401000Y-96321750D01*
X160401000Y-97171000D01*
X161375250Y-97171000D01*
X161417000Y-97129250D01*
X161458750Y-97171000D01*
X162433000Y-97171000D01*
X162433000Y-96321750D01*
X162687000Y-96321750D01*
X162687000Y-97171000D01*
X163661250Y-97171000D01*
X163820000Y-97012250D01*
X163820000Y-96671691D01*
X163723327Y-96438302D01*
X163544699Y-96259673D01*
X163311310Y-96163000D01*
X162845750Y-96163000D01*
X162687000Y-96321750D01*
X162433000Y-96321750D01*
X162274250Y-96163000D01*
X161808690Y-96163000D01*
X161575301Y-96259673D01*
X161417000Y-96417975D01*
X161258699Y-96259673D01*
X161025310Y-96163000D01*
X160559750Y-96163000D01*
X160401000Y-96321750D01*
X160147000Y-96321750D01*
X159988250Y-96163000D01*
X159522690Y-96163000D01*
X159289301Y-96259673D01*
X159131000Y-96417975D01*
X158972699Y-96259673D01*
X158739310Y-96163000D01*
X158273750Y-96163000D01*
X158115000Y-96321750D01*
X157861000Y-96321750D01*
X157702250Y-96163000D01*
X157236690Y-96163000D01*
X157003301Y-96259673D01*
X156845000Y-96417975D01*
X156686699Y-96259673D01*
X156453310Y-96163000D01*
X155987750Y-96163000D01*
X155829000Y-96321750D01*
X155575000Y-96321750D01*
X155416250Y-96163000D01*
X154950690Y-96163000D01*
X154717301Y-96259673D01*
X154538673Y-96438302D01*
X154442000Y-96671691D01*
X139690000Y-96671691D01*
X139593327Y-96438302D01*
X139414699Y-96259673D01*
X139181310Y-96163000D01*
X138715750Y-96163000D01*
X138557000Y-96321750D01*
X138303000Y-96321750D01*
X138144250Y-96163000D01*
X137678690Y-96163000D01*
X137445301Y-96259673D01*
X137266673Y-96438302D01*
X137170000Y-96671691D01*
X137150000Y-96671691D01*
X137053327Y-96438302D01*
X136874699Y-96259673D01*
X136641310Y-96163000D01*
X136175750Y-96163000D01*
X136017000Y-96321750D01*
X135763000Y-96321750D01*
X135604250Y-96163000D01*
X135138690Y-96163000D01*
X134905301Y-96259673D01*
X134726673Y-96438302D01*
X134630000Y-96671691D01*
X134610000Y-96671691D01*
X134513327Y-96438302D01*
X134334699Y-96259673D01*
X134101310Y-96163000D01*
X133635750Y-96163000D01*
X133477000Y-96321750D01*
X133223000Y-96321750D01*
X133064250Y-96163000D01*
X132598690Y-96163000D01*
X132365301Y-96259673D01*
X132186673Y-96438302D01*
X132090000Y-96671691D01*
X132070000Y-96671691D01*
X131973327Y-96438302D01*
X131794699Y-96259673D01*
X131561310Y-96163000D01*
X131095750Y-96163000D01*
X130937000Y-96321750D01*
X130683000Y-96321750D01*
X130524250Y-96163000D01*
X130058690Y-96163000D01*
X129825301Y-96259673D01*
X129646673Y-96438302D01*
X129550000Y-96671691D01*
X124712000Y-96671691D01*
X124712000Y-93978000D01*
X166624000Y-93978000D01*
X166914839Y-93920148D01*
X167161401Y-93755401D01*
X167923401Y-92993401D01*
X168088148Y-92746839D01*
X168146000Y-92456000D01*
X168146000Y-91080742D01*
X168271317Y-91057162D01*
X168487441Y-90918090D01*
X168632431Y-90705890D01*
X168683440Y-90454000D01*
X168683440Y-89754000D01*
X168639162Y-89518683D01*
X168500090Y-89302559D01*
X168287890Y-89157569D01*
X168274803Y-89154919D01*
X168487441Y-89018090D01*
X168632431Y-88805890D01*
X168683440Y-88554000D01*
X168683440Y-87854000D01*
X168649296Y-87672540D01*
X168676943Y-87661117D01*
X168940192Y-87398327D01*
X169082838Y-87054799D01*
X169083162Y-86682833D01*
X168941117Y-86339057D01*
X168711631Y-86109171D01*
X171225401Y-83595401D01*
X171390148Y-83348840D01*
X171448000Y-83058000D01*
X171448000Y-82548440D01*
X171563000Y-82548440D01*
X171798317Y-82504162D01*
X172014441Y-82365090D01*
X172159431Y-82152890D01*
X172210440Y-81901000D01*
X172210440Y-80151000D01*
X172166162Y-79915683D01*
X172027090Y-79699559D01*
X171814890Y-79554569D01*
X171563000Y-79503560D01*
X169813000Y-79503560D01*
X169577683Y-79547838D01*
X169361559Y-79686910D01*
X169216569Y-79899110D01*
X169213214Y-79915676D01*
X169044463Y-79746630D01*
X168489675Y-79516262D01*
X167888960Y-79515738D01*
X167333771Y-79745138D01*
X166937682Y-80140536D01*
X166544463Y-79746630D01*
X165989675Y-79516262D01*
X165388960Y-79515738D01*
X164833771Y-79745138D01*
X164437682Y-80140536D01*
X164044463Y-79746630D01*
X163489675Y-79516262D01*
X162888960Y-79515738D01*
X162333771Y-79745138D01*
X161937682Y-80140536D01*
X161544463Y-79746630D01*
X160989675Y-79516262D01*
X160388960Y-79515738D01*
X159833771Y-79745138D01*
X159437682Y-80140536D01*
X159044463Y-79746630D01*
X158489675Y-79516262D01*
X157888960Y-79515738D01*
X157333771Y-79745138D01*
X156908630Y-80169537D01*
X156899108Y-80192469D01*
X156750060Y-80143545D01*
X155867605Y-81026000D01*
X156750060Y-81908455D01*
X156898648Y-81859682D01*
X156907138Y-81880229D01*
X157331537Y-82305370D01*
X157428000Y-82345425D01*
X157428000Y-83813198D01*
X155418599Y-85822599D01*
X155253852Y-86069161D01*
X155196000Y-86360000D01*
X155196000Y-87227258D01*
X155070683Y-87250838D01*
X154854559Y-87389910D01*
X154709569Y-87602110D01*
X154658560Y-87854000D01*
X154658560Y-88554000D01*
X154702838Y-88789317D01*
X154841910Y-89005441D01*
X155054110Y-89150431D01*
X155067197Y-89153081D01*
X154854559Y-89289910D01*
X154709569Y-89502110D01*
X154658560Y-89754000D01*
X154658560Y-90454000D01*
X154702838Y-90689317D01*
X154841910Y-90905441D01*
X155054110Y-91050431D01*
X155196000Y-91079164D01*
X155196000Y-92141198D01*
X154879198Y-92458000D01*
X141221602Y-92458000D01*
X141222000Y-92456000D01*
X141222000Y-91080742D01*
X141347317Y-91057162D01*
X141563441Y-90918090D01*
X141708431Y-90705890D01*
X141759440Y-90454000D01*
X141759440Y-89754000D01*
X141715162Y-89518683D01*
X141576090Y-89302559D01*
X141363890Y-89157569D01*
X141350803Y-89154919D01*
X141563441Y-89018090D01*
X141708431Y-88805890D01*
X141759440Y-88554000D01*
X141759440Y-87854000D01*
X141743619Y-87769920D01*
X142006943Y-87661117D01*
X142270192Y-87398327D01*
X142412838Y-87054799D01*
X142413162Y-86682833D01*
X142271117Y-86339057D01*
X142008327Y-86075808D01*
X141875958Y-86020844D01*
X143031401Y-84865401D01*
X143196148Y-84618839D01*
X143254000Y-84328000D01*
X143254000Y-82548440D01*
X143369000Y-82548440D01*
X143604317Y-82504162D01*
X143820441Y-82365090D01*
X143965431Y-82152890D01*
X144016440Y-81901000D01*
X144016440Y-81325040D01*
X151677738Y-81325040D01*
X151907138Y-81880229D01*
X152331537Y-82305370D01*
X152886325Y-82535738D01*
X153487040Y-82536262D01*
X154042229Y-82306862D01*
X154261413Y-82088060D01*
X154805545Y-82088060D01*
X154888884Y-82341953D01*
X155453306Y-82547590D01*
X156053458Y-82521579D01*
X156487116Y-82341953D01*
X156570455Y-82088060D01*
X155688000Y-81205605D01*
X154805545Y-82088060D01*
X154261413Y-82088060D01*
X154467370Y-81882463D01*
X154476892Y-81859531D01*
X154625940Y-81908455D01*
X155508395Y-81026000D01*
X154625940Y-80143545D01*
X154477352Y-80192318D01*
X154468862Y-80171771D01*
X154261394Y-79963940D01*
X154805545Y-79963940D01*
X155688000Y-80846395D01*
X156570455Y-79963940D01*
X156487116Y-79710047D01*
X155922694Y-79504410D01*
X155322542Y-79530421D01*
X154888884Y-79710047D01*
X154805545Y-79963940D01*
X154261394Y-79963940D01*
X154044463Y-79746630D01*
X153489675Y-79516262D01*
X152888960Y-79515738D01*
X152333771Y-79745138D01*
X151908630Y-80169537D01*
X151678262Y-80724325D01*
X151677738Y-81325040D01*
X144016440Y-81325040D01*
X144016440Y-80151000D01*
X143972162Y-79915683D01*
X143833090Y-79699559D01*
X143620890Y-79554569D01*
X143369000Y-79503560D01*
X141619000Y-79503560D01*
X141383683Y-79547838D01*
X141167559Y-79686910D01*
X141022569Y-79899110D01*
X141019214Y-79915676D01*
X140850463Y-79746630D01*
X140295675Y-79516262D01*
X139694960Y-79515738D01*
X139139771Y-79745138D01*
X138743682Y-80140536D01*
X138350463Y-79746630D01*
X137795675Y-79516262D01*
X137194960Y-79515738D01*
X136639771Y-79745138D01*
X136243682Y-80140536D01*
X135850463Y-79746630D01*
X135295675Y-79516262D01*
X134694960Y-79515738D01*
X134139771Y-79745138D01*
X133743682Y-80140536D01*
X133350463Y-79746630D01*
X132795675Y-79516262D01*
X132194960Y-79515738D01*
X131639771Y-79745138D01*
X131243682Y-80140536D01*
X130850463Y-79746630D01*
X130295675Y-79516262D01*
X129694960Y-79515738D01*
X129139771Y-79745138D01*
X128714630Y-80169537D01*
X128705108Y-80192469D01*
X128556060Y-80143545D01*
X127673605Y-81026000D01*
X128556060Y-81908455D01*
X128704648Y-81859682D01*
X128713138Y-81880229D01*
X129137537Y-82305370D01*
X129234000Y-82345425D01*
X129234000Y-83813198D01*
X127413479Y-85633719D01*
X127285117Y-85323057D01*
X127022327Y-85059808D01*
X126678799Y-84917162D01*
X126306833Y-84916838D01*
X125963057Y-85058883D01*
X125699808Y-85321673D01*
X125557162Y-85665201D01*
X125556838Y-86037167D01*
X125698883Y-86380943D01*
X125961673Y-86644192D01*
X126305201Y-86786838D01*
X126352077Y-86786879D01*
X126839781Y-87274583D01*
X126660559Y-87389910D01*
X126515569Y-87602110D01*
X126464560Y-87854000D01*
X126464560Y-88554000D01*
X126508838Y-88789317D01*
X126647910Y-89005441D01*
X126860110Y-89150431D01*
X126873197Y-89153081D01*
X126660559Y-89289910D01*
X126515569Y-89502110D01*
X126464560Y-89754000D01*
X126464560Y-90454000D01*
X126508838Y-90689317D01*
X126647910Y-90905441D01*
X126860110Y-91050431D01*
X127002000Y-91079164D01*
X127002000Y-91887198D01*
X126431198Y-92458000D01*
X124206000Y-92458000D01*
X123915160Y-92515852D01*
X123668599Y-92680599D01*
X123414599Y-92934599D01*
X123249852Y-93181161D01*
X123192000Y-93472000D01*
X123192000Y-108738560D01*
X123102000Y-108738560D01*
X122866683Y-108782838D01*
X122650559Y-108921910D01*
X122505569Y-109134110D01*
X122454560Y-109386000D01*
X114427000Y-109386000D01*
X114427000Y-80235445D01*
X114645709Y-80764761D01*
X115395293Y-81515655D01*
X116375173Y-81922536D01*
X117436172Y-81923462D01*
X118416761Y-81518291D01*
X118610349Y-81325040D01*
X123483738Y-81325040D01*
X123713138Y-81880229D01*
X124137537Y-82305370D01*
X124692325Y-82535738D01*
X125293040Y-82536262D01*
X125848229Y-82306862D01*
X126067413Y-82088060D01*
X126611545Y-82088060D01*
X126694884Y-82341953D01*
X127259306Y-82547590D01*
X127859458Y-82521579D01*
X128293116Y-82341953D01*
X128376455Y-82088060D01*
X127494000Y-81205605D01*
X126611545Y-82088060D01*
X126067413Y-82088060D01*
X126273370Y-81882463D01*
X126282892Y-81859531D01*
X126431940Y-81908455D01*
X127314395Y-81026000D01*
X126431940Y-80143545D01*
X126283352Y-80192318D01*
X126274862Y-80171771D01*
X126067394Y-79963940D01*
X126611545Y-79963940D01*
X127494000Y-80846395D01*
X128376455Y-79963940D01*
X128293116Y-79710047D01*
X127728694Y-79504410D01*
X127128542Y-79530421D01*
X126694884Y-79710047D01*
X126611545Y-79963940D01*
X126067394Y-79963940D01*
X125850463Y-79746630D01*
X125295675Y-79516262D01*
X124694960Y-79515738D01*
X124139771Y-79745138D01*
X123714630Y-80169537D01*
X123484262Y-80724325D01*
X123483738Y-81325040D01*
X118610349Y-81325040D01*
X119167655Y-80768707D01*
X119574536Y-79788827D01*
X119575462Y-78727828D01*
X119170291Y-77747239D01*
X118420707Y-76996345D01*
X118032144Y-76835000D01*
X177783344Y-76835000D01*
X177399239Y-76993709D01*
X177399239Y-76993709D01*
G37*
X177399239Y-76993709D02*
X176648345Y-77743293D01*
X176241464Y-78723173D01*
X176240538Y-79784172D01*
X176645709Y-80764761D01*
X177395293Y-81515655D01*
X178375173Y-81922536D01*
X179436172Y-81923462D01*
X180416761Y-81518291D01*
X181167655Y-80768707D01*
X181229000Y-80620972D01*
X181229000Y-129889326D01*
X181170291Y-129747239D01*
X180420707Y-128996345D01*
X179440827Y-128589464D01*
X178379828Y-128588538D01*
X177399239Y-128993709D01*
X176648345Y-129743293D01*
X176241464Y-130723173D01*
X176240538Y-131784172D01*
X176645709Y-132764761D01*
X177395293Y-133515655D01*
X177913902Y-133731000D01*
X117901966Y-133731000D01*
X118416761Y-133518291D01*
X119167655Y-132768707D01*
X119574536Y-131788827D01*
X119575462Y-130727828D01*
X119170291Y-129747239D01*
X118420707Y-128996345D01*
X117440827Y-128589464D01*
X116379828Y-128588538D01*
X115399239Y-128993709D01*
X114648345Y-129743293D01*
X114427000Y-130276352D01*
X114427000Y-124626000D01*
X122454560Y-124626000D01*
X122454560Y-126326000D01*
X122498838Y-126561317D01*
X122637910Y-126777441D01*
X122850110Y-126922431D01*
X123102000Y-126973440D01*
X124802000Y-126973440D01*
X125037317Y-126929162D01*
X125253441Y-126790090D01*
X125398431Y-126577890D01*
X125412086Y-126510459D01*
X125441946Y-126555147D01*
X125923715Y-126877054D01*
X126492000Y-126990093D01*
X127060285Y-126877054D01*
X127542054Y-126555147D01*
X127762000Y-126225974D01*
X127981946Y-126555147D01*
X128463715Y-126877054D01*
X129032000Y-126990093D01*
X129600285Y-126877054D01*
X130082054Y-126555147D01*
X130302000Y-126225974D01*
X130521946Y-126555147D01*
X131003715Y-126877054D01*
X131572000Y-126990093D01*
X132140285Y-126877054D01*
X132622054Y-126555147D01*
X132842000Y-126225974D01*
X133061946Y-126555147D01*
X133543715Y-126877054D01*
X134112000Y-126990093D01*
X134680285Y-126877054D01*
X135162054Y-126555147D01*
X135382000Y-126225974D01*
X135601946Y-126555147D01*
X136083715Y-126877054D01*
X136652000Y-126990093D01*
X137220285Y-126877054D01*
X137702054Y-126555147D01*
X137922000Y-126225974D01*
X138141946Y-126555147D01*
X138623715Y-126877054D01*
X139192000Y-126990093D01*
X139760285Y-126877054D01*
X140242054Y-126555147D01*
X140462000Y-126225974D01*
X140681946Y-126555147D01*
X141163715Y-126877054D01*
X141732000Y-126990093D01*
X142300285Y-126877054D01*
X142782054Y-126555147D01*
X143002000Y-126225974D01*
X143221946Y-126555147D01*
X143703715Y-126877054D01*
X144272000Y-126990093D01*
X144840285Y-126877054D01*
X145322054Y-126555147D01*
X145542000Y-126225974D01*
X145761946Y-126555147D01*
X146243715Y-126877054D01*
X146812000Y-126990093D01*
X147380285Y-126877054D01*
X147862054Y-126555147D01*
X148082000Y-126225974D01*
X148301946Y-126555147D01*
X148783715Y-126877054D01*
X149352000Y-126990093D01*
X149920285Y-126877054D01*
X150402054Y-126555147D01*
X150622000Y-126225974D01*
X150841946Y-126555147D01*
X151323715Y-126877054D01*
X151892000Y-126990093D01*
X152460285Y-126877054D01*
X152942054Y-126555147D01*
X153162000Y-126225974D01*
X153381946Y-126555147D01*
X153863715Y-126877054D01*
X154432000Y-126990093D01*
X155000285Y-126877054D01*
X155482054Y-126555147D01*
X155702000Y-126225974D01*
X155921946Y-126555147D01*
X156403715Y-126877054D01*
X156972000Y-126990093D01*
X157540285Y-126877054D01*
X158022054Y-126555147D01*
X158242000Y-126225974D01*
X158461946Y-126555147D01*
X158943715Y-126877054D01*
X159512000Y-126990093D01*
X160080285Y-126877054D01*
X160562054Y-126555147D01*
X160782000Y-126225974D01*
X161001946Y-126555147D01*
X161483715Y-126877054D01*
X162052000Y-126990093D01*
X162620285Y-126877054D01*
X163102054Y-126555147D01*
X163322000Y-126225974D01*
X163541946Y-126555147D01*
X164023715Y-126877054D01*
X164592000Y-126990093D01*
X165160285Y-126877054D01*
X165642054Y-126555147D01*
X165862000Y-126225974D01*
X166081946Y-126555147D01*
X166563715Y-126877054D01*
X167132000Y-126990093D01*
X167700285Y-126877054D01*
X168182054Y-126555147D01*
X168409702Y-126214447D01*
X168476817Y-126357358D01*
X168905076Y-126747645D01*
X169315110Y-126917476D01*
X169545000Y-126796155D01*
X169545000Y-125603000D01*
X169799000Y-125603000D01*
X169799000Y-126796155D01*
X170028890Y-126917476D01*
X170438924Y-126747645D01*
X170867183Y-126357358D01*
X170942000Y-126198046D01*
X171016817Y-126357358D01*
X171445076Y-126747645D01*
X171855110Y-126917476D01*
X172085000Y-126796155D01*
X172085000Y-125603000D01*
X172339000Y-125603000D01*
X172339000Y-126796155D01*
X172568890Y-126917476D01*
X172978924Y-126747645D01*
X173407183Y-126357358D01*
X173653486Y-125832892D01*
X173532819Y-125603000D01*
X172339000Y-125603000D01*
X172085000Y-125603000D01*
X169799000Y-125603000D01*
X169545000Y-125603000D01*
X169525000Y-125603000D01*
X169525000Y-125349000D01*
X169545000Y-125349000D01*
X169545000Y-124155845D01*
X169799000Y-124155845D01*
X169799000Y-125349000D01*
X172085000Y-125349000D01*
X172085000Y-124155845D01*
X172339000Y-124155845D01*
X172339000Y-125349000D01*
X173532819Y-125349000D01*
X173653486Y-125119108D01*
X173407183Y-124594642D01*
X172978924Y-124204355D01*
X172568890Y-124034524D01*
X172339000Y-124155845D01*
X172085000Y-124155845D01*
X171855110Y-124034524D01*
X171445076Y-124204355D01*
X171016817Y-124594642D01*
X170942000Y-124753954D01*
X170867183Y-124594642D01*
X170438924Y-124204355D01*
X170028890Y-124034524D01*
X169799000Y-124155845D01*
X169545000Y-124155845D01*
X169315110Y-124034524D01*
X168905076Y-124204355D01*
X168476817Y-124594642D01*
X168409702Y-124737553D01*
X168182054Y-124396853D01*
X167700285Y-124074946D01*
X167132000Y-123961907D01*
X166563715Y-124074946D01*
X166081946Y-124396853D01*
X165862000Y-124726026D01*
X165642054Y-124396853D01*
X165160285Y-124074946D01*
X164592000Y-123961907D01*
X164023715Y-124074946D01*
X163541946Y-124396853D01*
X163322000Y-124726026D01*
X163102054Y-124396853D01*
X162812000Y-124203046D01*
X162812000Y-119470038D01*
X162912317Y-119451162D01*
X163128441Y-119312090D01*
X163273431Y-119099890D01*
X163324440Y-118848000D01*
X163324440Y-117848000D01*
X163280162Y-117612683D01*
X163141090Y-117396559D01*
X163072994Y-117350031D01*
X163215327Y-117207698D01*
X163312000Y-116974309D01*
X163312000Y-116633750D01*
X163153250Y-116475000D01*
X162179000Y-116475000D01*
X162179000Y-116495000D01*
X161925000Y-116495000D01*
X161925000Y-116475000D01*
X160950750Y-116475000D01*
X160792000Y-116633750D01*
X160792000Y-116974309D01*
X160888673Y-117207698D01*
X161029910Y-117348936D01*
X160975559Y-117383910D01*
X160830569Y-117596110D01*
X160782090Y-117835509D01*
X160740162Y-117612683D01*
X160601090Y-117396559D01*
X160532994Y-117350031D01*
X160675327Y-117207698D01*
X160772000Y-116974309D01*
X160772000Y-116633750D01*
X160613250Y-116475000D01*
X159639000Y-116475000D01*
X159639000Y-116495000D01*
X159385000Y-116495000D01*
X159385000Y-116475000D01*
X158410750Y-116475000D01*
X158252000Y-116633750D01*
X158252000Y-116974309D01*
X158348673Y-117207698D01*
X158489910Y-117348936D01*
X158435559Y-117383910D01*
X158290569Y-117596110D01*
X158242090Y-117835509D01*
X158200162Y-117612683D01*
X158061090Y-117396559D01*
X157992994Y-117350031D01*
X158135327Y-117207698D01*
X158232000Y-116974309D01*
X158232000Y-116633750D01*
X158073250Y-116475000D01*
X157099000Y-116475000D01*
X157099000Y-116495000D01*
X156845000Y-116495000D01*
X156845000Y-116475000D01*
X155870750Y-116475000D01*
X155712000Y-116633750D01*
X155712000Y-116974309D01*
X155808673Y-117207698D01*
X155949910Y-117348936D01*
X155895559Y-117383910D01*
X155750569Y-117596110D01*
X155702090Y-117835509D01*
X155660162Y-117612683D01*
X155521090Y-117396559D01*
X155452994Y-117350031D01*
X155595327Y-117207698D01*
X155692000Y-116974309D01*
X155692000Y-116633750D01*
X155533250Y-116475000D01*
X154559000Y-116475000D01*
X154559000Y-116495000D01*
X154305000Y-116495000D01*
X154305000Y-116475000D01*
X153330750Y-116475000D01*
X153172000Y-116633750D01*
X153172000Y-116974309D01*
X153268673Y-117207698D01*
X153409910Y-117348936D01*
X153355559Y-117383910D01*
X153210569Y-117596110D01*
X153159560Y-117848000D01*
X153159560Y-118848000D01*
X153203838Y-119083317D01*
X153342910Y-119299441D01*
X153555110Y-119444431D01*
X153672000Y-119468102D01*
X153672000Y-120341537D01*
X153639808Y-120373673D01*
X153497162Y-120717201D01*
X153496838Y-121089167D01*
X153638883Y-121432943D01*
X153672000Y-121466118D01*
X153672000Y-124203046D01*
X153381946Y-124396853D01*
X153162000Y-124726026D01*
X152942054Y-124396853D01*
X152460285Y-124074946D01*
X151892000Y-123961907D01*
X151323715Y-124074946D01*
X150841946Y-124396853D01*
X150622000Y-124726026D01*
X150402054Y-124396853D01*
X149920285Y-124074946D01*
X149352000Y-123961907D01*
X148783715Y-124074946D01*
X148301946Y-124396853D01*
X148082000Y-124726026D01*
X147862054Y-124396853D01*
X147380285Y-124074946D01*
X146812000Y-123961907D01*
X146243715Y-124074946D01*
X145761946Y-124396853D01*
X145542000Y-124726026D01*
X145322054Y-124396853D01*
X144840285Y-124074946D01*
X144272000Y-123961907D01*
X143703715Y-124074946D01*
X143221946Y-124396853D01*
X143002000Y-124726026D01*
X142782054Y-124396853D01*
X142300285Y-124074946D01*
X141732000Y-123961907D01*
X141163715Y-124074946D01*
X140681946Y-124396853D01*
X140462000Y-124726026D01*
X140242054Y-124396853D01*
X139760285Y-124074946D01*
X139192000Y-123961907D01*
X138623715Y-124074946D01*
X138141946Y-124396853D01*
X137922000Y-124726026D01*
X137702054Y-124396853D01*
X137220285Y-124074946D01*
X136652000Y-123961907D01*
X136083715Y-124074946D01*
X135601946Y-124396853D01*
X135382000Y-124726026D01*
X135162054Y-124396853D01*
X134680285Y-124074946D01*
X134112000Y-123961907D01*
X133543715Y-124074946D01*
X133061946Y-124396853D01*
X132842000Y-124726026D01*
X132622054Y-124396853D01*
X132140285Y-124074946D01*
X131572000Y-123961907D01*
X131003715Y-124074946D01*
X130521946Y-124396853D01*
X130302000Y-124726026D01*
X130082054Y-124396853D01*
X129600285Y-124074946D01*
X129032000Y-123961907D01*
X128463715Y-124074946D01*
X127981946Y-124396853D01*
X127762000Y-124726026D01*
X127542054Y-124396853D01*
X127060285Y-124074946D01*
X126492000Y-123961907D01*
X125923715Y-124074946D01*
X125441946Y-124396853D01*
X125414150Y-124438452D01*
X125405162Y-124390683D01*
X125266090Y-124174559D01*
X125053890Y-124029569D01*
X124802000Y-123978560D01*
X123102000Y-123978560D01*
X122866683Y-124022838D01*
X122650559Y-124161910D01*
X122505569Y-124374110D01*
X122454560Y-124626000D01*
X114427000Y-124626000D01*
X114427000Y-115721691D01*
X153172000Y-115721691D01*
X153172000Y-116062250D01*
X153330750Y-116221000D01*
X154305000Y-116221000D01*
X154305000Y-115371750D01*
X154559000Y-115371750D01*
X154559000Y-116221000D01*
X155533250Y-116221000D01*
X155692000Y-116062250D01*
X155692000Y-115721691D01*
X155712000Y-115721691D01*
X155712000Y-116062250D01*
X155870750Y-116221000D01*
X156845000Y-116221000D01*
X156845000Y-115371750D01*
X157099000Y-115371750D01*
X157099000Y-116221000D01*
X158073250Y-116221000D01*
X158232000Y-116062250D01*
X158232000Y-115721691D01*
X158252000Y-115721691D01*
X158252000Y-116062250D01*
X158410750Y-116221000D01*
X159385000Y-116221000D01*
X159385000Y-115371750D01*
X159639000Y-115371750D01*
X159639000Y-116221000D01*
X160613250Y-116221000D01*
X160772000Y-116062250D01*
X160772000Y-115721691D01*
X160792000Y-115721691D01*
X160792000Y-116062250D01*
X160950750Y-116221000D01*
X161925000Y-116221000D01*
X161925000Y-115371750D01*
X162179000Y-115371750D01*
X162179000Y-116221000D01*
X163153250Y-116221000D01*
X163312000Y-116062250D01*
X163312000Y-115721691D01*
X163215327Y-115488302D01*
X163036699Y-115309673D01*
X162803310Y-115213000D01*
X162337750Y-115213000D01*
X162179000Y-115371750D01*
X161925000Y-115371750D01*
X161766250Y-115213000D01*
X161300690Y-115213000D01*
X161067301Y-115309673D01*
X160888673Y-115488302D01*
X160792000Y-115721691D01*
X160772000Y-115721691D01*
X160675327Y-115488302D01*
X160496699Y-115309673D01*
X160263310Y-115213000D01*
X159797750Y-115213000D01*
X159639000Y-115371750D01*
X159385000Y-115371750D01*
X159226250Y-115213000D01*
X158760690Y-115213000D01*
X158527301Y-115309673D01*
X158348673Y-115488302D01*
X158252000Y-115721691D01*
X158232000Y-115721691D01*
X158135327Y-115488302D01*
X157956699Y-115309673D01*
X157723310Y-115213000D01*
X157257750Y-115213000D01*
X157099000Y-115371750D01*
X156845000Y-115371750D01*
X156686250Y-115213000D01*
X156220690Y-115213000D01*
X155987301Y-115309673D01*
X155808673Y-115488302D01*
X155712000Y-115721691D01*
X155692000Y-115721691D01*
X155595327Y-115488302D01*
X155416699Y-115309673D01*
X155183310Y-115213000D01*
X154717750Y-115213000D01*
X154559000Y-115371750D01*
X154305000Y-115371750D01*
X154146250Y-115213000D01*
X153680690Y-115213000D01*
X153447301Y-115309673D01*
X153268673Y-115488302D01*
X153172000Y-115721691D01*
X114427000Y-115721691D01*
X114427000Y-109386000D01*
X122454560Y-109386000D01*
X122454560Y-111086000D01*
X122498838Y-111321317D01*
X122637910Y-111537441D01*
X122850110Y-111682431D01*
X123102000Y-111733440D01*
X124802000Y-111733440D01*
X125037317Y-111689162D01*
X125253441Y-111550090D01*
X125398431Y-111337890D01*
X125420301Y-111229893D01*
X125725076Y-111507645D01*
X126135110Y-111677476D01*
X126365000Y-111556155D01*
X126365000Y-110363000D01*
X126345000Y-110363000D01*
X126345000Y-110109000D01*
X126365000Y-110109000D01*
X126365000Y-108915845D01*
X126619000Y-108915845D01*
X126619000Y-110109000D01*
X126639000Y-110109000D01*
X126639000Y-110363000D01*
X126619000Y-110363000D01*
X126619000Y-111556155D01*
X126848890Y-111677476D01*
X127258924Y-111507645D01*
X127687183Y-111117358D01*
X127754298Y-110974447D01*
X127981946Y-111315147D01*
X128463715Y-111637054D01*
X129032000Y-111750093D01*
X129600285Y-111637054D01*
X130082054Y-111315147D01*
X130302000Y-110985974D01*
X130521946Y-111315147D01*
X131003715Y-111637054D01*
X131572000Y-111750093D01*
X132140285Y-111637054D01*
X132622054Y-111315147D01*
X132842000Y-110985974D01*
X133061946Y-111315147D01*
X133543715Y-111637054D01*
X134112000Y-111750093D01*
X134680285Y-111637054D01*
X135162054Y-111315147D01*
X135382000Y-110985974D01*
X135601946Y-111315147D01*
X136083715Y-111637054D01*
X136652000Y-111750093D01*
X137220285Y-111637054D01*
X137702054Y-111315147D01*
X137922000Y-110985974D01*
X138141946Y-111315147D01*
X138623715Y-111637054D01*
X139192000Y-111750093D01*
X139760285Y-111637054D01*
X140242054Y-111315147D01*
X140462000Y-110985974D01*
X140681946Y-111315147D01*
X141163715Y-111637054D01*
X141732000Y-111750093D01*
X142300285Y-111637054D01*
X142782054Y-111315147D01*
X143002000Y-110985974D01*
X143221946Y-111315147D01*
X143703715Y-111637054D01*
X144272000Y-111750093D01*
X144840285Y-111637054D01*
X145322054Y-111315147D01*
X145542000Y-110985974D01*
X145761946Y-111315147D01*
X146243715Y-111637054D01*
X146812000Y-111750093D01*
X147380285Y-111637054D01*
X147862054Y-111315147D01*
X148082000Y-110985974D01*
X148301946Y-111315147D01*
X148783715Y-111637054D01*
X149352000Y-111750093D01*
X149920285Y-111637054D01*
X150402054Y-111315147D01*
X150622000Y-110985974D01*
X150841946Y-111315147D01*
X151323715Y-111637054D01*
X151892000Y-111750093D01*
X152460285Y-111637054D01*
X152942054Y-111315147D01*
X153162000Y-110985974D01*
X153381946Y-111315147D01*
X153863715Y-111637054D01*
X154432000Y-111750093D01*
X155000285Y-111637054D01*
X155482054Y-111315147D01*
X155702000Y-110985974D01*
X155921946Y-111315147D01*
X156403715Y-111637054D01*
X156972000Y-111750093D01*
X157540285Y-111637054D01*
X158022054Y-111315147D01*
X158242000Y-110985974D01*
X158461946Y-111315147D01*
X158943715Y-111637054D01*
X159512000Y-111750093D01*
X160080285Y-111637054D01*
X160562054Y-111315147D01*
X160782000Y-110985974D01*
X161001946Y-111315147D01*
X161483715Y-111637054D01*
X162052000Y-111750093D01*
X162620285Y-111637054D01*
X163102054Y-111315147D01*
X163322000Y-110985974D01*
X163541946Y-111315147D01*
X164023715Y-111637054D01*
X164592000Y-111750093D01*
X165160285Y-111637054D01*
X165642054Y-111315147D01*
X165862000Y-110985974D01*
X166081946Y-111315147D01*
X166563715Y-111637054D01*
X167132000Y-111750093D01*
X167700285Y-111637054D01*
X168182054Y-111315147D01*
X168402000Y-110985974D01*
X168621946Y-111315147D01*
X169103715Y-111637054D01*
X169672000Y-111750093D01*
X170240285Y-111637054D01*
X170722054Y-111315147D01*
X170942000Y-110985974D01*
X171161946Y-111315147D01*
X171643715Y-111637054D01*
X172212000Y-111750093D01*
X172780285Y-111637054D01*
X173262054Y-111315147D01*
X173583961Y-110833378D01*
X173697000Y-110265093D01*
X173697000Y-110206907D01*
X173583961Y-109638622D01*
X173262054Y-109156853D01*
X172780285Y-108834946D01*
X172212000Y-108721907D01*
X171643715Y-108834946D01*
X171161946Y-109156853D01*
X170942000Y-109486026D01*
X170722054Y-109156853D01*
X170240285Y-108834946D01*
X169672000Y-108721907D01*
X169103715Y-108834946D01*
X168621946Y-109156853D01*
X168402000Y-109486026D01*
X168182054Y-109156853D01*
X167700285Y-108834946D01*
X167132000Y-108721907D01*
X166563715Y-108834946D01*
X166081946Y-109156853D01*
X165862000Y-109486026D01*
X165642054Y-109156853D01*
X165160285Y-108834946D01*
X164592000Y-108721907D01*
X164023715Y-108834946D01*
X163541946Y-109156853D01*
X163322000Y-109486026D01*
X163102054Y-109156853D01*
X162620285Y-108834946D01*
X162052000Y-108721907D01*
X161483715Y-108834946D01*
X161001946Y-109156853D01*
X160782000Y-109486026D01*
X160562054Y-109156853D01*
X160080285Y-108834946D01*
X159512000Y-108721907D01*
X158943715Y-108834946D01*
X158461946Y-109156853D01*
X158242000Y-109486026D01*
X158022054Y-109156853D01*
X157540285Y-108834946D01*
X156972000Y-108721907D01*
X156403715Y-108834946D01*
X155921946Y-109156853D01*
X155702000Y-109486026D01*
X155482054Y-109156853D01*
X155000285Y-108834946D01*
X154432000Y-108721907D01*
X153863715Y-108834946D01*
X153381946Y-109156853D01*
X153162000Y-109486026D01*
X152942054Y-109156853D01*
X152460285Y-108834946D01*
X151892000Y-108721907D01*
X151323715Y-108834946D01*
X150841946Y-109156853D01*
X150622000Y-109486026D01*
X150402054Y-109156853D01*
X150112000Y-108963046D01*
X150112000Y-105154000D01*
X157734000Y-105154000D01*
X158024839Y-105096148D01*
X158271401Y-104931401D01*
X160159680Y-103043122D01*
X160205167Y-103043162D01*
X160548943Y-102901117D01*
X160812192Y-102638327D01*
X160954838Y-102294799D01*
X160954879Y-102247923D01*
X162757362Y-100445440D01*
X163185000Y-100445440D01*
X163420317Y-100401162D01*
X163636441Y-100262090D01*
X163781431Y-100049890D01*
X163832440Y-99798000D01*
X163832440Y-98798000D01*
X163788162Y-98562683D01*
X163649090Y-98346559D01*
X163580994Y-98300031D01*
X163723327Y-98157698D01*
X163820000Y-97924309D01*
X163820000Y-97583750D01*
X163661250Y-97425000D01*
X162687000Y-97425000D01*
X162687000Y-97445000D01*
X162433000Y-97445000D01*
X162433000Y-97425000D01*
X161458750Y-97425000D01*
X161417000Y-97466750D01*
X161375250Y-97425000D01*
X160401000Y-97425000D01*
X160401000Y-97445000D01*
X160147000Y-97445000D01*
X160147000Y-97425000D01*
X159172750Y-97425000D01*
X159131000Y-97466750D01*
X159089250Y-97425000D01*
X158115000Y-97425000D01*
X158115000Y-97445000D01*
X157861000Y-97445000D01*
X157861000Y-97425000D01*
X156886750Y-97425000D01*
X156845000Y-97466750D01*
X156803250Y-97425000D01*
X155829000Y-97425000D01*
X155829000Y-97445000D01*
X155575000Y-97445000D01*
X155575000Y-97425000D01*
X154600750Y-97425000D01*
X154442000Y-97583750D01*
X154442000Y-97924309D01*
X154538673Y-98157698D01*
X154679910Y-98298936D01*
X154625559Y-98333910D01*
X154480569Y-98546110D01*
X154429560Y-98798000D01*
X154429560Y-99798000D01*
X154473838Y-100033317D01*
X154612910Y-100249441D01*
X154825110Y-100394431D01*
X154942000Y-100418102D01*
X154942000Y-101539198D01*
X154371198Y-102110000D01*
X147066000Y-102110000D01*
X146775161Y-102167852D01*
X146528599Y-102332599D01*
X141194599Y-107666599D01*
X141029852Y-107913161D01*
X140972000Y-108204000D01*
X140972000Y-108963046D01*
X140681946Y-109156853D01*
X140462000Y-109486026D01*
X140242054Y-109156853D01*
X139760285Y-108834946D01*
X139192000Y-108721907D01*
X138936000Y-108772829D01*
X138936000Y-101640597D01*
X138958943Y-101631117D01*
X139222192Y-101368327D01*
X139364838Y-101024799D01*
X139365162Y-100652833D01*
X139263276Y-100406250D01*
X139290317Y-100401162D01*
X139506441Y-100262090D01*
X139651431Y-100049890D01*
X139702440Y-99798000D01*
X139702440Y-98798000D01*
X139658162Y-98562683D01*
X139519090Y-98346559D01*
X139450994Y-98300031D01*
X139593327Y-98157698D01*
X139690000Y-97924309D01*
X139690000Y-97583750D01*
X139531250Y-97425000D01*
X138557000Y-97425000D01*
X138557000Y-97445000D01*
X138303000Y-97445000D01*
X138303000Y-97425000D01*
X137328750Y-97425000D01*
X137170000Y-97583750D01*
X137170000Y-97924309D01*
X137266673Y-98157698D01*
X137407910Y-98298936D01*
X137353559Y-98333910D01*
X137208569Y-98546110D01*
X137160090Y-98785509D01*
X137118162Y-98562683D01*
X136979090Y-98346559D01*
X136910994Y-98300031D01*
X137053327Y-98157698D01*
X137150000Y-97924309D01*
X137150000Y-97583750D01*
X136991250Y-97425000D01*
X136017000Y-97425000D01*
X136017000Y-97445000D01*
X135763000Y-97445000D01*
X135763000Y-97425000D01*
X134788750Y-97425000D01*
X134630000Y-97583750D01*
X134630000Y-97924309D01*
X134726673Y-98157698D01*
X134867910Y-98298936D01*
X134813559Y-98333910D01*
X134668569Y-98546110D01*
X134620090Y-98785509D01*
X134578162Y-98562683D01*
X134439090Y-98346559D01*
X134370994Y-98300031D01*
X134513327Y-98157698D01*
X134610000Y-97924309D01*
X134610000Y-97583750D01*
X134451250Y-97425000D01*
X133477000Y-97425000D01*
X133477000Y-97445000D01*
X133223000Y-97445000D01*
X133223000Y-97425000D01*
X132248750Y-97425000D01*
X132090000Y-97583750D01*
X132090000Y-97924309D01*
X132186673Y-98157698D01*
X132327910Y-98298936D01*
X132273559Y-98333910D01*
X132128569Y-98546110D01*
X132080090Y-98785509D01*
X132038162Y-98562683D01*
X131899090Y-98346559D01*
X131830994Y-98300031D01*
X131973327Y-98157698D01*
X132070000Y-97924309D01*
X132070000Y-97583750D01*
X131911250Y-97425000D01*
X130937000Y-97425000D01*
X130937000Y-97445000D01*
X130683000Y-97445000D01*
X130683000Y-97425000D01*
X129708750Y-97425000D01*
X129550000Y-97583750D01*
X129550000Y-97924309D01*
X129646673Y-98157698D01*
X129787910Y-98298936D01*
X129733559Y-98333910D01*
X129588569Y-98546110D01*
X129537560Y-98798000D01*
X129537560Y-99798000D01*
X129581838Y-100033317D01*
X129720910Y-100249441D01*
X129933110Y-100394431D01*
X130185000Y-100445440D01*
X130304000Y-100445440D01*
X130304000Y-102561537D01*
X130271808Y-102593673D01*
X130129162Y-102937201D01*
X130128838Y-103309167D01*
X130270883Y-103652943D01*
X130304000Y-103686118D01*
X130304000Y-109483033D01*
X130302000Y-109486026D01*
X130082054Y-109156853D01*
X129600285Y-108834946D01*
X129032000Y-108721907D01*
X128463715Y-108834946D01*
X127981946Y-109156853D01*
X127754298Y-109497553D01*
X127687183Y-109354642D01*
X127258924Y-108964355D01*
X126848890Y-108794524D01*
X126619000Y-108915845D01*
X126365000Y-108915845D01*
X126135110Y-108794524D01*
X125725076Y-108964355D01*
X125422063Y-109240501D01*
X125405162Y-109150683D01*
X125266090Y-108934559D01*
X125053890Y-108789569D01*
X124802000Y-108738560D01*
X124712000Y-108738560D01*
X124712000Y-96671691D01*
X129550000Y-96671691D01*
X129550000Y-97012250D01*
X129708750Y-97171000D01*
X130683000Y-97171000D01*
X130683000Y-96321750D01*
X130937000Y-96321750D01*
X130937000Y-97171000D01*
X131911250Y-97171000D01*
X132070000Y-97012250D01*
X132070000Y-96671691D01*
X132090000Y-96671691D01*
X132090000Y-97012250D01*
X132248750Y-97171000D01*
X133223000Y-97171000D01*
X133223000Y-96321750D01*
X133477000Y-96321750D01*
X133477000Y-97171000D01*
X134451250Y-97171000D01*
X134610000Y-97012250D01*
X134610000Y-96671691D01*
X134630000Y-96671691D01*
X134630000Y-97012250D01*
X134788750Y-97171000D01*
X135763000Y-97171000D01*
X135763000Y-96321750D01*
X136017000Y-96321750D01*
X136017000Y-97171000D01*
X136991250Y-97171000D01*
X137150000Y-97012250D01*
X137150000Y-96671691D01*
X137170000Y-96671691D01*
X137170000Y-97012250D01*
X137328750Y-97171000D01*
X138303000Y-97171000D01*
X138303000Y-96321750D01*
X138557000Y-96321750D01*
X138557000Y-97171000D01*
X139531250Y-97171000D01*
X139690000Y-97012250D01*
X139690000Y-96671691D01*
X154442000Y-96671691D01*
X154442000Y-97012250D01*
X154600750Y-97171000D01*
X155575000Y-97171000D01*
X155575000Y-96321750D01*
X155829000Y-96321750D01*
X155829000Y-97171000D01*
X156803250Y-97171000D01*
X156845000Y-97129250D01*
X156886750Y-97171000D01*
X157861000Y-97171000D01*
X157861000Y-96321750D01*
X158115000Y-96321750D01*
X158115000Y-97171000D01*
X159089250Y-97171000D01*
X159131000Y-97129250D01*
X159172750Y-97171000D01*
X160147000Y-97171000D01*
X160147000Y-96321750D01*
X160401000Y-96321750D01*
X160401000Y-97171000D01*
X161375250Y-97171000D01*
X161417000Y-97129250D01*
X161458750Y-97171000D01*
X162433000Y-97171000D01*
X162433000Y-96321750D01*
X162687000Y-96321750D01*
X162687000Y-97171000D01*
X163661250Y-97171000D01*
X163820000Y-97012250D01*
X163820000Y-96671691D01*
X163723327Y-96438302D01*
X163544699Y-96259673D01*
X163311310Y-96163000D01*
X162845750Y-96163000D01*
X162687000Y-96321750D01*
X162433000Y-96321750D01*
X162274250Y-96163000D01*
X161808690Y-96163000D01*
X161575301Y-96259673D01*
X161417000Y-96417975D01*
X161258699Y-96259673D01*
X161025310Y-96163000D01*
X160559750Y-96163000D01*
X160401000Y-96321750D01*
X160147000Y-96321750D01*
X159988250Y-96163000D01*
X159522690Y-96163000D01*
X159289301Y-96259673D01*
X159131000Y-96417975D01*
X158972699Y-96259673D01*
X158739310Y-96163000D01*
X158273750Y-96163000D01*
X158115000Y-96321750D01*
X157861000Y-96321750D01*
X157702250Y-96163000D01*
X157236690Y-96163000D01*
X157003301Y-96259673D01*
X156845000Y-96417975D01*
X156686699Y-96259673D01*
X156453310Y-96163000D01*
X155987750Y-96163000D01*
X155829000Y-96321750D01*
X155575000Y-96321750D01*
X155416250Y-96163000D01*
X154950690Y-96163000D01*
X154717301Y-96259673D01*
X154538673Y-96438302D01*
X154442000Y-96671691D01*
X139690000Y-96671691D01*
X139593327Y-96438302D01*
X139414699Y-96259673D01*
X139181310Y-96163000D01*
X138715750Y-96163000D01*
X138557000Y-96321750D01*
X138303000Y-96321750D01*
X138144250Y-96163000D01*
X137678690Y-96163000D01*
X137445301Y-96259673D01*
X137266673Y-96438302D01*
X137170000Y-96671691D01*
X137150000Y-96671691D01*
X137053327Y-96438302D01*
X136874699Y-96259673D01*
X136641310Y-96163000D01*
X136175750Y-96163000D01*
X136017000Y-96321750D01*
X135763000Y-96321750D01*
X135604250Y-96163000D01*
X135138690Y-96163000D01*
X134905301Y-96259673D01*
X134726673Y-96438302D01*
X134630000Y-96671691D01*
X134610000Y-96671691D01*
X134513327Y-96438302D01*
X134334699Y-96259673D01*
X134101310Y-96163000D01*
X133635750Y-96163000D01*
X133477000Y-96321750D01*
X133223000Y-96321750D01*
X133064250Y-96163000D01*
X132598690Y-96163000D01*
X132365301Y-96259673D01*
X132186673Y-96438302D01*
X132090000Y-96671691D01*
X132070000Y-96671691D01*
X131973327Y-96438302D01*
X131794699Y-96259673D01*
X131561310Y-96163000D01*
X131095750Y-96163000D01*
X130937000Y-96321750D01*
X130683000Y-96321750D01*
X130524250Y-96163000D01*
X130058690Y-96163000D01*
X129825301Y-96259673D01*
X129646673Y-96438302D01*
X129550000Y-96671691D01*
X124712000Y-96671691D01*
X124712000Y-93978000D01*
X166624000Y-93978000D01*
X166914839Y-93920148D01*
X167161401Y-93755401D01*
X167923401Y-92993401D01*
X168088148Y-92746839D01*
X168146000Y-92456000D01*
X168146000Y-91080742D01*
X168271317Y-91057162D01*
X168487441Y-90918090D01*
X168632431Y-90705890D01*
X168683440Y-90454000D01*
X168683440Y-89754000D01*
X168639162Y-89518683D01*
X168500090Y-89302559D01*
X168287890Y-89157569D01*
X168274803Y-89154919D01*
X168487441Y-89018090D01*
X168632431Y-88805890D01*
X168683440Y-88554000D01*
X168683440Y-87854000D01*
X168649296Y-87672540D01*
X168676943Y-87661117D01*
X168940192Y-87398327D01*
X169082838Y-87054799D01*
X169083162Y-86682833D01*
X168941117Y-86339057D01*
X168711631Y-86109171D01*
X171225401Y-83595401D01*
X171390148Y-83348840D01*
X171448000Y-83058000D01*
X171448000Y-82548440D01*
X171563000Y-82548440D01*
X171798317Y-82504162D01*
X172014441Y-82365090D01*
X172159431Y-82152890D01*
X172210440Y-81901000D01*
X172210440Y-80151000D01*
X172166162Y-79915683D01*
X172027090Y-79699559D01*
X171814890Y-79554569D01*
X171563000Y-79503560D01*
X169813000Y-79503560D01*
X169577683Y-79547838D01*
X169361559Y-79686910D01*
X169216569Y-79899110D01*
X169213214Y-79915676D01*
X169044463Y-79746630D01*
X168489675Y-79516262D01*
X167888960Y-79515738D01*
X167333771Y-79745138D01*
X166937682Y-80140536D01*
X166544463Y-79746630D01*
X165989675Y-79516262D01*
X165388960Y-79515738D01*
X164833771Y-79745138D01*
X164437682Y-80140536D01*
X164044463Y-79746630D01*
X163489675Y-79516262D01*
X162888960Y-79515738D01*
X162333771Y-79745138D01*
X161937682Y-80140536D01*
X161544463Y-79746630D01*
X160989675Y-79516262D01*
X160388960Y-79515738D01*
X159833771Y-79745138D01*
X159437682Y-80140536D01*
X159044463Y-79746630D01*
X158489675Y-79516262D01*
X157888960Y-79515738D01*
X157333771Y-79745138D01*
X156908630Y-80169537D01*
X156899108Y-80192469D01*
X156750060Y-80143545D01*
X155867605Y-81026000D01*
X156750060Y-81908455D01*
X156898648Y-81859682D01*
X156907138Y-81880229D01*
X157331537Y-82305370D01*
X157428000Y-82345425D01*
X157428000Y-83813198D01*
X155418599Y-85822599D01*
X155253852Y-86069161D01*
X155196000Y-86360000D01*
X155196000Y-87227258D01*
X155070683Y-87250838D01*
X154854559Y-87389910D01*
X154709569Y-87602110D01*
X154658560Y-87854000D01*
X154658560Y-88554000D01*
X154702838Y-88789317D01*
X154841910Y-89005441D01*
X155054110Y-89150431D01*
X155067197Y-89153081D01*
X154854559Y-89289910D01*
X154709569Y-89502110D01*
X154658560Y-89754000D01*
X154658560Y-90454000D01*
X154702838Y-90689317D01*
X154841910Y-90905441D01*
X155054110Y-91050431D01*
X155196000Y-91079164D01*
X155196000Y-92141198D01*
X154879198Y-92458000D01*
X141221602Y-92458000D01*
X141222000Y-92456000D01*
X141222000Y-91080742D01*
X141347317Y-91057162D01*
X141563441Y-90918090D01*
X141708431Y-90705890D01*
X141759440Y-90454000D01*
X141759440Y-89754000D01*
X141715162Y-89518683D01*
X141576090Y-89302559D01*
X141363890Y-89157569D01*
X141350803Y-89154919D01*
X141563441Y-89018090D01*
X141708431Y-88805890D01*
X141759440Y-88554000D01*
X141759440Y-87854000D01*
X141743619Y-87769920D01*
X142006943Y-87661117D01*
X142270192Y-87398327D01*
X142412838Y-87054799D01*
X142413162Y-86682833D01*
X142271117Y-86339057D01*
X142008327Y-86075808D01*
X141875958Y-86020844D01*
X143031401Y-84865401D01*
X143196148Y-84618839D01*
X143254000Y-84328000D01*
X143254000Y-82548440D01*
X143369000Y-82548440D01*
X143604317Y-82504162D01*
X143820441Y-82365090D01*
X143965431Y-82152890D01*
X144016440Y-81901000D01*
X144016440Y-81325040D01*
X151677738Y-81325040D01*
X151907138Y-81880229D01*
X152331537Y-82305370D01*
X152886325Y-82535738D01*
X153487040Y-82536262D01*
X154042229Y-82306862D01*
X154261413Y-82088060D01*
X154805545Y-82088060D01*
X154888884Y-82341953D01*
X155453306Y-82547590D01*
X156053458Y-82521579D01*
X156487116Y-82341953D01*
X156570455Y-82088060D01*
X155688000Y-81205605D01*
X154805545Y-82088060D01*
X154261413Y-82088060D01*
X154467370Y-81882463D01*
X154476892Y-81859531D01*
X154625940Y-81908455D01*
X155508395Y-81026000D01*
X154625940Y-80143545D01*
X154477352Y-80192318D01*
X154468862Y-80171771D01*
X154261394Y-79963940D01*
X154805545Y-79963940D01*
X155688000Y-80846395D01*
X156570455Y-79963940D01*
X156487116Y-79710047D01*
X155922694Y-79504410D01*
X155322542Y-79530421D01*
X154888884Y-79710047D01*
X154805545Y-79963940D01*
X154261394Y-79963940D01*
X154044463Y-79746630D01*
X153489675Y-79516262D01*
X152888960Y-79515738D01*
X152333771Y-79745138D01*
X151908630Y-80169537D01*
X151678262Y-80724325D01*
X151677738Y-81325040D01*
X144016440Y-81325040D01*
X144016440Y-80151000D01*
X143972162Y-79915683D01*
X143833090Y-79699559D01*
X143620890Y-79554569D01*
X143369000Y-79503560D01*
X141619000Y-79503560D01*
X141383683Y-79547838D01*
X141167559Y-79686910D01*
X141022569Y-79899110D01*
X141019214Y-79915676D01*
X140850463Y-79746630D01*
X140295675Y-79516262D01*
X139694960Y-79515738D01*
X139139771Y-79745138D01*
X138743682Y-80140536D01*
X138350463Y-79746630D01*
X137795675Y-79516262D01*
X137194960Y-79515738D01*
X136639771Y-79745138D01*
X136243682Y-80140536D01*
X135850463Y-79746630D01*
X135295675Y-79516262D01*
X134694960Y-79515738D01*
X134139771Y-79745138D01*
X133743682Y-80140536D01*
X133350463Y-79746630D01*
X132795675Y-79516262D01*
X132194960Y-79515738D01*
X131639771Y-79745138D01*
X131243682Y-80140536D01*
X130850463Y-79746630D01*
X130295675Y-79516262D01*
X129694960Y-79515738D01*
X129139771Y-79745138D01*
X128714630Y-80169537D01*
X128705108Y-80192469D01*
X128556060Y-80143545D01*
X127673605Y-81026000D01*
X128556060Y-81908455D01*
X128704648Y-81859682D01*
X128713138Y-81880229D01*
X129137537Y-82305370D01*
X129234000Y-82345425D01*
X129234000Y-83813198D01*
X127413479Y-85633719D01*
X127285117Y-85323057D01*
X127022327Y-85059808D01*
X126678799Y-84917162D01*
X126306833Y-84916838D01*
X125963057Y-85058883D01*
X125699808Y-85321673D01*
X125557162Y-85665201D01*
X125556838Y-86037167D01*
X125698883Y-86380943D01*
X125961673Y-86644192D01*
X126305201Y-86786838D01*
X126352077Y-86786879D01*
X126839781Y-87274583D01*
X126660559Y-87389910D01*
X126515569Y-87602110D01*
X126464560Y-87854000D01*
X126464560Y-88554000D01*
X126508838Y-88789317D01*
X126647910Y-89005441D01*
X126860110Y-89150431D01*
X126873197Y-89153081D01*
X126660559Y-89289910D01*
X126515569Y-89502110D01*
X126464560Y-89754000D01*
X126464560Y-90454000D01*
X126508838Y-90689317D01*
X126647910Y-90905441D01*
X126860110Y-91050431D01*
X127002000Y-91079164D01*
X127002000Y-91887198D01*
X126431198Y-92458000D01*
X124206000Y-92458000D01*
X123915160Y-92515852D01*
X123668599Y-92680599D01*
X123414599Y-92934599D01*
X123249852Y-93181161D01*
X123192000Y-93472000D01*
X123192000Y-108738560D01*
X123102000Y-108738560D01*
X122866683Y-108782838D01*
X122650559Y-108921910D01*
X122505569Y-109134110D01*
X122454560Y-109386000D01*
X114427000Y-109386000D01*
X114427000Y-80235445D01*
X114645709Y-80764761D01*
X115395293Y-81515655D01*
X116375173Y-81922536D01*
X117436172Y-81923462D01*
X118416761Y-81518291D01*
X118610349Y-81325040D01*
X123483738Y-81325040D01*
X123713138Y-81880229D01*
X124137537Y-82305370D01*
X124692325Y-82535738D01*
X125293040Y-82536262D01*
X125848229Y-82306862D01*
X126067413Y-82088060D01*
X126611545Y-82088060D01*
X126694884Y-82341953D01*
X127259306Y-82547590D01*
X127859458Y-82521579D01*
X128293116Y-82341953D01*
X128376455Y-82088060D01*
X127494000Y-81205605D01*
X126611545Y-82088060D01*
X126067413Y-82088060D01*
X126273370Y-81882463D01*
X126282892Y-81859531D01*
X126431940Y-81908455D01*
X127314395Y-81026000D01*
X126431940Y-80143545D01*
X126283352Y-80192318D01*
X126274862Y-80171771D01*
X126067394Y-79963940D01*
X126611545Y-79963940D01*
X127494000Y-80846395D01*
X128376455Y-79963940D01*
X128293116Y-79710047D01*
X127728694Y-79504410D01*
X127128542Y-79530421D01*
X126694884Y-79710047D01*
X126611545Y-79963940D01*
X126067394Y-79963940D01*
X125850463Y-79746630D01*
X125295675Y-79516262D01*
X124694960Y-79515738D01*
X124139771Y-79745138D01*
X123714630Y-80169537D01*
X123484262Y-80724325D01*
X123483738Y-81325040D01*
X118610349Y-81325040D01*
X119167655Y-80768707D01*
X119574536Y-79788827D01*
X119575462Y-78727828D01*
X119170291Y-77747239D01*
X118420707Y-76996345D01*
X118032144Y-76835000D01*
X177783344Y-76835000D01*
X177399239Y-76993709D01*
M02*
