G04 #@! TF.FileFunction,Copper,L2,Bot,Signal*
%FSLAX46Y46*%
G04 Gerber Fmt 4.6, Leading zero omitted, Abs format (unit mm)*
G04 Created by KiCad (PCBNEW 4.0.5-e0-6337~49~ubuntu16.04.1) date Thu Feb 16 22:53:25 2017*
%MOMM*%
%LPD*%
G01*
G04 APERTURE LIST*
%ADD10C,0.100000*%
%ADD11C,4.064000*%
%ADD12R,1.750000X1.750000*%
%ADD13C,1.750000*%
%ADD14R,1.700000X1.700000*%
%ADD15O,1.700000X1.700000*%
%ADD16C,0.600000*%
%ADD17C,0.250000*%
G04 APERTURE END LIST*
D10*
D11*
X116908000Y-79256000D03*
X178908000Y-79256000D03*
X116908000Y-131256000D03*
X178908000Y-131256000D03*
D12*
X170688000Y-81026000D03*
D13*
X168188000Y-81026000D03*
X165688000Y-81026000D03*
X163188000Y-81026000D03*
X160688000Y-81026000D03*
X158188000Y-81026000D03*
X155688000Y-81026000D03*
X153188000Y-81026000D03*
D12*
X142494000Y-81026000D03*
D13*
X139994000Y-81026000D03*
X137494000Y-81026000D03*
X134994000Y-81026000D03*
X132494000Y-81026000D03*
X129994000Y-81026000D03*
X127494000Y-81026000D03*
X124994000Y-81026000D03*
D14*
X123952000Y-125476000D03*
D15*
X126492000Y-125476000D03*
X129032000Y-125476000D03*
X131572000Y-125476000D03*
X134112000Y-125476000D03*
X136652000Y-125476000D03*
X139192000Y-125476000D03*
X141732000Y-125476000D03*
X144272000Y-125476000D03*
X146812000Y-125476000D03*
X149352000Y-125476000D03*
X151892000Y-125476000D03*
X154432000Y-125476000D03*
X156972000Y-125476000D03*
X159512000Y-125476000D03*
X162052000Y-125476000D03*
X164592000Y-125476000D03*
X167132000Y-125476000D03*
X169672000Y-125476000D03*
X172212000Y-125476000D03*
D14*
X123952000Y-110236000D03*
D15*
X126492000Y-110236000D03*
X129032000Y-110236000D03*
X131572000Y-110236000D03*
X134112000Y-110236000D03*
X136652000Y-110236000D03*
X139192000Y-110236000D03*
X141732000Y-110236000D03*
X144272000Y-110236000D03*
X146812000Y-110236000D03*
X149352000Y-110236000D03*
X151892000Y-110236000D03*
X154432000Y-110236000D03*
X156972000Y-110236000D03*
X159512000Y-110236000D03*
X162052000Y-110236000D03*
X164592000Y-110236000D03*
X167132000Y-110236000D03*
X169672000Y-110236000D03*
X172212000Y-110236000D03*
D16*
X168148000Y-86868000D03*
X165862000Y-86868000D03*
X164084000Y-86614000D03*
X160020000Y-102108000D03*
X161798000Y-86614000D03*
X159258000Y-101346000D03*
X138430000Y-100838000D03*
X141478000Y-86868000D03*
X135890000Y-101600000D03*
X138938000Y-86868000D03*
X133350000Y-102362000D03*
X136398000Y-86868000D03*
X133604000Y-86868000D03*
X131064000Y-103124000D03*
X154432000Y-120904000D03*
X159258000Y-86868000D03*
X129286000Y-86614000D03*
X126492000Y-85852000D03*
X156972000Y-86614000D03*
X156972000Y-121666000D03*
D17*
X168148000Y-86868000D02*
X173736000Y-86868000D01*
X144272000Y-112014000D02*
X144272000Y-110236000D01*
X144780000Y-112522000D02*
X144272000Y-112014000D01*
X173482000Y-112522000D02*
X144780000Y-112522000D01*
X174498000Y-111506000D02*
X173482000Y-112522000D01*
X174498000Y-87630000D02*
X174498000Y-111506000D01*
X173736000Y-86868000D02*
X174498000Y-87630000D01*
X165862000Y-86868000D02*
X166624000Y-86106000D01*
X141732000Y-112522000D02*
X141732000Y-110236000D01*
X142240000Y-113030000D02*
X141732000Y-112522000D01*
X173990000Y-113030000D02*
X142240000Y-113030000D01*
X175260000Y-111760000D02*
X173990000Y-113030000D01*
X175260000Y-87376000D02*
X175260000Y-111760000D01*
X173990000Y-86106000D02*
X175260000Y-87376000D01*
X166624000Y-86106000D02*
X173990000Y-86106000D01*
X164084000Y-86614000D02*
X164084000Y-100838000D01*
X162814000Y-102108000D02*
X160020000Y-102108000D01*
X164084000Y-100838000D02*
X162814000Y-102108000D01*
X161798000Y-86614000D02*
X161290000Y-87122000D01*
X161290000Y-87122000D02*
X161290000Y-99314000D01*
X161290000Y-99314000D02*
X159258000Y-101346000D01*
X142748000Y-86868000D02*
X143256000Y-87376000D01*
X143256000Y-87376000D02*
X143256000Y-97790000D01*
X143256000Y-97790000D02*
X140208000Y-100838000D01*
X138430000Y-100838000D02*
X140208000Y-100838000D01*
X141478000Y-86868000D02*
X142748000Y-86868000D01*
X135890000Y-101600000D02*
X140716000Y-101600000D01*
X144018000Y-98298000D02*
X144018000Y-87376000D01*
X139700000Y-86106000D02*
X143002000Y-86106000D01*
X143002000Y-86106000D02*
X144018000Y-87122000D01*
X144018000Y-87122000D02*
X144018000Y-87376000D01*
X138938000Y-86868000D02*
X139700000Y-86106000D01*
X144018000Y-98298000D02*
X140716000Y-101600000D01*
X144526000Y-98806000D02*
X140970000Y-102362000D01*
X133350000Y-102362000D02*
X140970000Y-102362000D01*
X137668000Y-85598000D02*
X143764000Y-85598000D01*
X143764000Y-85598000D02*
X144526000Y-86360000D01*
X144526000Y-86360000D02*
X144526000Y-87376000D01*
X136398000Y-86868000D02*
X137668000Y-85598000D01*
X144526000Y-87376000D02*
X144526000Y-98806000D01*
X145288000Y-87376000D02*
X145288000Y-99314000D01*
X135382000Y-85090000D02*
X144018000Y-85090000D01*
X144018000Y-85090000D02*
X145288000Y-86360000D01*
X145288000Y-86360000D02*
X145288000Y-87376000D01*
X133604000Y-86868000D02*
X135382000Y-85090000D01*
X131064000Y-103124000D02*
X141478000Y-103124000D01*
X145288000Y-99314000D02*
X141478000Y-103124000D01*
X154178000Y-120904000D02*
X154432000Y-120904000D01*
X152908000Y-119634000D02*
X154178000Y-120904000D01*
X152908000Y-115316000D02*
X152908000Y-119634000D01*
X154686000Y-113538000D02*
X152908000Y-115316000D01*
X174498000Y-113538000D02*
X154686000Y-113538000D01*
X176022000Y-112014000D02*
X174498000Y-113538000D01*
X176022000Y-87122000D02*
X176022000Y-112014000D01*
X174244000Y-85344000D02*
X176022000Y-87122000D01*
X160782000Y-85344000D02*
X174244000Y-85344000D01*
X159258000Y-86868000D02*
X160782000Y-85344000D01*
X129286000Y-86614000D02*
X122174000Y-86614000D01*
X159512000Y-127254000D02*
X159512000Y-125476000D01*
X158750000Y-128016000D02*
X159512000Y-127254000D01*
X122682000Y-128016000D02*
X158750000Y-128016000D01*
X120650000Y-125984000D02*
X122682000Y-128016000D01*
X120650000Y-88138000D02*
X120650000Y-125984000D01*
X122174000Y-86614000D02*
X120650000Y-88138000D01*
X126492000Y-85852000D02*
X121920000Y-85852000D01*
X162052000Y-127762000D02*
X162052000Y-125476000D01*
X161290000Y-128524000D02*
X162052000Y-127762000D01*
X122174000Y-128524000D02*
X161290000Y-128524000D01*
X119888000Y-126238000D02*
X122174000Y-128524000D01*
X119888000Y-87884000D02*
X119888000Y-126238000D01*
X121920000Y-85852000D02*
X119888000Y-87884000D01*
X156972000Y-86614000D02*
X159258000Y-84328000D01*
X157988000Y-120650000D02*
X156972000Y-121666000D01*
X175260000Y-120650000D02*
X157988000Y-120650000D01*
X177038000Y-118872000D02*
X175260000Y-120650000D01*
X177038000Y-112268000D02*
X177038000Y-118872000D01*
X177038000Y-86868000D02*
X177038000Y-112268000D01*
X174498000Y-84328000D02*
X177038000Y-86868000D01*
X159258000Y-84328000D02*
X174498000Y-84328000D01*
X167132000Y-125476000D02*
X167132000Y-123444000D01*
X123952000Y-121920000D02*
X123952000Y-110236000D01*
X124714000Y-122682000D02*
X123952000Y-121920000D01*
X166370000Y-122682000D02*
X124714000Y-122682000D01*
X167132000Y-123444000D02*
X166370000Y-122682000D01*
M02*
