G04 #@! TF.FileFunction,Soldermask,Top*
%FSLAX46Y46*%
G04 Gerber Fmt 4.6, Leading zero omitted, Abs format (unit mm)*
G04 Created by KiCad (PCBNEW 4.0.5-e0-6337~49~ubuntu16.04.1) date Thu Feb 16 22:53:25 2017*
%MOMM*%
%LPD*%
G01*
G04 APERTURE LIST*
%ADD10C,0.100000*%
%ADD11C,4.064000*%
%ADD12R,1.250000X1.000000*%
%ADD13R,1.750000X1.750000*%
%ADD14C,1.750000*%
%ADD15R,1.700000X1.700000*%
%ADD16O,1.700000X1.700000*%
%ADD17R,1.300000X0.700000*%
G04 APERTURE END LIST*
D10*
D11*
X116908000Y-79256000D03*
X178908000Y-79256000D03*
X116908000Y-131256000D03*
X178908000Y-131256000D03*
D12*
X157988000Y-97298000D03*
X157988000Y-99298000D03*
X155702000Y-97298000D03*
X155702000Y-99298000D03*
X162560000Y-97298000D03*
X162560000Y-99298000D03*
X160274000Y-97298000D03*
X160274000Y-99298000D03*
X138430000Y-97298000D03*
X138430000Y-99298000D03*
X135890000Y-97298000D03*
X135890000Y-99298000D03*
X133350000Y-97298000D03*
X133350000Y-99298000D03*
X130810000Y-97298000D03*
X130810000Y-99298000D03*
X154432000Y-116348000D03*
X154432000Y-118348000D03*
X156972000Y-116348000D03*
X156972000Y-118348000D03*
X159512000Y-116348000D03*
X159512000Y-118348000D03*
X162052000Y-116348000D03*
X162052000Y-118348000D03*
D13*
X170688000Y-81026000D03*
D14*
X168188000Y-81026000D03*
X165688000Y-81026000D03*
X163188000Y-81026000D03*
X160688000Y-81026000D03*
X158188000Y-81026000D03*
X155688000Y-81026000D03*
X153188000Y-81026000D03*
D13*
X142494000Y-81026000D03*
D14*
X139994000Y-81026000D03*
X137494000Y-81026000D03*
X134994000Y-81026000D03*
X132494000Y-81026000D03*
X129994000Y-81026000D03*
X127494000Y-81026000D03*
X124994000Y-81026000D03*
D15*
X123952000Y-125476000D03*
D16*
X126492000Y-125476000D03*
X129032000Y-125476000D03*
X131572000Y-125476000D03*
X134112000Y-125476000D03*
X136652000Y-125476000D03*
X139192000Y-125476000D03*
X141732000Y-125476000D03*
X144272000Y-125476000D03*
X146812000Y-125476000D03*
X149352000Y-125476000D03*
X151892000Y-125476000D03*
X154432000Y-125476000D03*
X156972000Y-125476000D03*
X159512000Y-125476000D03*
X162052000Y-125476000D03*
X164592000Y-125476000D03*
X167132000Y-125476000D03*
X169672000Y-125476000D03*
X172212000Y-125476000D03*
D15*
X123952000Y-110236000D03*
D16*
X126492000Y-110236000D03*
X129032000Y-110236000D03*
X131572000Y-110236000D03*
X134112000Y-110236000D03*
X136652000Y-110236000D03*
X139192000Y-110236000D03*
X141732000Y-110236000D03*
X144272000Y-110236000D03*
X146812000Y-110236000D03*
X149352000Y-110236000D03*
X151892000Y-110236000D03*
X154432000Y-110236000D03*
X156972000Y-110236000D03*
X159512000Y-110236000D03*
X162052000Y-110236000D03*
X164592000Y-110236000D03*
X167132000Y-110236000D03*
X169672000Y-110236000D03*
X172212000Y-110236000D03*
D17*
X167386000Y-88204000D03*
X167386000Y-90104000D03*
X165100000Y-88204000D03*
X165100000Y-90104000D03*
X162814000Y-88204000D03*
X162814000Y-90104000D03*
X160528000Y-88204000D03*
X160528000Y-90104000D03*
X140462000Y-88204000D03*
X140462000Y-90104000D03*
X137922000Y-88204000D03*
X137922000Y-90104000D03*
X135382000Y-88204000D03*
X135382000Y-90104000D03*
X132842000Y-88204000D03*
X132842000Y-90104000D03*
X158242000Y-88204000D03*
X158242000Y-90104000D03*
X155956000Y-88204000D03*
X155956000Y-90104000D03*
X130302000Y-88204000D03*
X130302000Y-90104000D03*
X127762000Y-88204000D03*
X127762000Y-90104000D03*
M02*
