M48
;DRILL file {KiCad 4.0.5-e0-6337~49~ubuntu16.04.1} date Thu Feb 16 22:53:21 2017
;FORMAT={-:-/ absolute / inch / decimal}
FMAT,2
INCH,TZ
T1C0.016
T2C0.035
T3C0.039
T4C0.120
%
G90
G05
M72
T1
X4.98Y-3.38
X5.09Y-3.41
X5.16Y-4.06
X5.25Y-4.03
X5.26Y-3.42
X5.35Y-4.
X5.37Y-3.42
X5.45Y-3.97
X5.47Y-3.42
X5.57Y-3.42
X6.08Y-4.76
X6.18Y-3.41
X6.18Y-4.79
X6.27Y-3.42
X6.27Y-3.99
X6.3Y-4.02
X6.37Y-3.41
X6.46Y-3.41
X6.53Y-3.42
X6.62Y-3.42
T2
X4.921Y-3.19
X5.0194Y-3.19
X5.1179Y-3.19
X5.2163Y-3.19
X5.3147Y-3.19
X5.4131Y-3.19
X5.5116Y-3.19
X5.61Y-3.19
X6.031Y-3.19
X6.1294Y-3.19
X6.2279Y-3.19
X6.3263Y-3.19
X6.4247Y-3.19
X6.5231Y-3.19
X6.6216Y-3.19
X6.72Y-3.19
T3
X4.88Y-4.34
X4.88Y-4.94
X4.98Y-4.34
X4.98Y-4.94
X5.08Y-4.34
X5.08Y-4.94
X5.18Y-4.34
X5.18Y-4.94
X5.28Y-4.34
X5.28Y-4.94
X5.38Y-4.34
X5.38Y-4.94
X5.48Y-4.34
X5.48Y-4.94
X5.58Y-4.34
X5.58Y-4.94
X5.68Y-4.34
X5.68Y-4.94
X5.78Y-4.34
X5.78Y-4.94
X5.88Y-4.34
X5.88Y-4.94
X5.98Y-4.34
X5.98Y-4.94
X6.08Y-4.34
X6.08Y-4.94
X6.18Y-4.34
X6.18Y-4.94
X6.28Y-4.34
X6.28Y-4.94
X6.38Y-4.34
X6.38Y-4.94
X6.48Y-4.34
X6.48Y-4.94
X6.58Y-4.34
X6.58Y-4.94
X6.68Y-4.34
X6.68Y-4.94
X6.78Y-4.34
X6.78Y-4.94
T4
X4.6027Y-3.1203
X4.6027Y-5.1676
X7.0436Y-3.1203
X7.0436Y-5.1676
T0
M30
